<?xml version="1.0" encoding="UTF-8"?>
<svg version="1.1" xmlns="http://www.w3.org/2000/svg" width="743" height="485">
<path d="M0 0 C245.19 0 490.38 0 743 0 C743 160.05 743 320.1 743 485 C497.81 485 252.62 485 0 485 C0 324.95 0 164.9 0 0 Z " fill="#004051" transform="translate(0,0)"/>
<path d="M0 0 C0.86143826 -0.00507454 1.72287652 -0.01014909 2.61041898 -0.0153774 C3.55728772 -0.01587516 4.50415647 -0.01637292 5.47971821 -0.01688576 C6.48527439 -0.02126801 7.49083057 -0.02565027 8.52685815 -0.03016531 C11.91229517 -0.04357041 15.29770616 -0.04973603 18.68316364 -0.0558567 C21.1040938 -0.0637563 23.52502278 -0.07202516 25.94595051 -0.08063698 C33.22251065 -0.10460751 40.49907254 -0.11978704 47.77565834 -0.13269705 C49.83116344 -0.13640953 51.88666786 -0.14038272 53.94217229 -0.14444971 C66.70877869 -0.16968683 79.47538618 -0.19173818 92.24201202 -0.20417786 C95.19879568 -0.20710751 98.15557929 -0.21006918 101.11236286 -0.21308327 C101.84724972 -0.21382932 102.58213658 -0.21457537 103.33929274 -0.21534403 C115.24187907 -0.22799549 127.14431594 -0.26121614 139.04683241 -0.3028851 C151.26918113 -0.34532269 163.49145339 -0.36887498 175.71387559 -0.37409842 C182.57541072 -0.37751049 189.4367123 -0.38924124 196.29817486 -0.42220116 C202.75371781 -0.45316052 209.20896528 -0.45860823 215.66457462 -0.4468174 C218.03330406 -0.44659632 220.40205217 -0.45492978 222.77071667 -0.47247124 C226.00656504 -0.49512932 229.24093266 -0.48688211 232.47678852 -0.47098732 C233.41250366 -0.48486941 234.3482188 -0.49875149 235.31228894 -0.51305425 C241.55090351 -0.43763287 246.07601696 0.914649 250.79571247 5.13701439 C255.72071407 12.14505454 255.37951715 19.91466753 255.32696247 28.19170189 C255.32966465 29.54254497 255.33355306 30.89338614 255.33855915 32.24422264 C255.34442436 35.06333151 255.33599183 37.88193016 255.31719685 40.70097923 C255.29445202 44.28389829 255.30751929 47.86561543 255.3314867 51.44849014 C255.34606425 54.23525822 255.341284 57.02174977 255.33097553 59.80852699 C255.32707192 61.76193346 255.33905626 63.71535141 255.3514986 65.66872215 C255.25820151 74.63247152 254.44845164 83.92271025 247.72930622 90.51982689 C246.58273879 91.45735981 245.41654347 92.37133341 244.23321247 93.26201439 C243.61260944 93.76080101 242.99200642 94.25958763 242.35259724 94.773489 C241.09921363 95.77828888 239.83815716 96.77360199 238.56914997 97.75859642 C236.08369246 99.69043743 233.66132458 101.6963219 231.23321247 103.69951439 C230.35664997 104.41107689 229.48008747 105.12263939 228.57696247 105.85576439 C225.43186871 108.43544804 222.33110828 111.06355387 219.23321247 113.69951439 C213.83499203 118.28461705 208.35657662 122.74984064 202.79571247 127.13701439 C201.59886941 128.09245742 200.40227172 129.04820787 199.20586872 130.00420189 C197.94434703 131.00705399 196.68262916 132.00965936 195.42071247 133.01201439 C194.52751301 133.72744408 194.52751301 133.72744408 193.61626911 134.45732689 C186.67344792 139.9476874 184.45904105 140.13701439 174.79571247 140.13701439 C174.79571247 151.02701439 174.79571247 161.91701439 174.79571247 173.13701439 C173.47571247 172.14701439 172.15571247 171.15701439 170.79571247 170.13701439 C171.22883747 170.85437767 171.22883747 170.85437767 171.67071247 171.58623314 C174.89517686 178.00157375 175.18034762 183.96691072 175.17071247 191.01201439 C175.17200153 191.93973656 175.1732906 192.86745872 175.17461872 193.82329369 C175.10447461 198.19972842 175.00793297 201.27197278 172.79571247 205.13701439 C173.45571247 205.13701439 174.11571247 205.13701439 174.79571247 205.13701439 C174.88852207 218.41104985 174.95953339 231.68500771 175.00296116 244.95930195 C175.02380765 251.12355537 175.05207215 257.28758628 175.09747028 263.45171165 C175.14103201 269.40395409 175.16487167 275.35598291 175.17522144 281.3083725 C175.18259422 283.5757038 175.19699148 285.84302382 175.2186327 288.11026382 C175.24780324 291.29383255 175.25166268 294.4765262 175.24981403 297.66020775 C175.27138569 299.05636063 175.27138569 299.05636063 175.29339314 300.48071861 C175.24994323 307.42673429 173.87706672 313.69205947 169.13209629 318.99693775 C167.4013423 320.64741254 165.60299634 322.14618344 163.73321247 323.63701439 C163.06563923 324.19179466 162.39806599 324.74657494 161.71026325 325.31816673 C159.75135036 326.94064843 157.77592619 328.54065112 155.79571247 330.13701439 C154.81473591 330.94396751 153.83375935 331.75092064 152.82305622 332.58232689 C151.06636677 334.02596859 149.30469257 335.46356761 147.53789997 336.89482689 C144.42570884 339.43955297 141.35851506 342.03327355 138.29571247 344.63701439 C133.40711827 348.78944382 128.47986288 352.88836165 123.49883747 356.92998314 C121.60076266 358.47971185 119.71645821 360.04638604 117.84258747 361.62529564 C116.87836872 362.43353783 115.91414997 363.24178001 114.92071247 364.07451439 C114.0570406 364.80541283 113.19336872 365.53631126 112.30352497 366.28935814 C107.21683528 370.03702827 102.64509557 370.43809724 96.46050739 370.44341087 C95.63382053 370.45173439 94.80713367 370.46005791 93.9553957 370.46863365 C91.22894261 370.49268158 88.50272904 370.50149958 85.77618122 370.50810814 C83.87435047 370.51707875 81.97252044 370.52620068 80.07069111 370.53546715 C76.08537807 370.55194577 72.10014893 370.55965515 68.11480427 370.5625515 C63.02043872 370.56793269 57.92686707 370.60560675 52.83272552 370.65129566 C48.90435155 370.68111141 44.97616766 370.68827605 41.04769039 370.68927765 C39.17028195 370.69347132 37.2928725 370.70587127 35.41557598 370.7267952 C32.78283234 370.75380257 30.15191487 370.74885696 27.51910114 370.73637962 C26.75155506 370.75121391 25.98400898 370.7660482 25.19320393 370.78133202 C19.37402431 370.70322195 15.08421017 369.15761273 10.79571247 365.13701439 C5.41331097 358.10058586 6.24832831 349.15868679 6.32574177 340.75078392 C6.32523224 339.2075441 6.32297188 337.66430402 6.31910419 336.12106895 C6.31371086 331.95400156 6.33302296 327.78738315 6.35720515 323.62039614 C6.37857425 319.25362546 6.37790917 314.88685516 6.37989521 310.52004051 C6.38633001 303.19502136 6.40753451 295.87016998 6.43902302 288.54521751 C6.4794031 279.13942518 6.49672628 269.73374175 6.5063324 260.32787323 C6.51462737 252.23722019 6.5318593 244.14659023 6.55136991 236.05595732 C6.55541935 234.31986544 6.55915883 232.58377282 6.56259227 230.84767962 C6.5723719 225.90399216 6.58685055 220.96037002 6.60943127 216.01672363 C6.61555689 214.51830385 6.6200053 213.01987616 6.62267399 211.52144623 C6.62665138 209.4801308 6.63740998 207.43883191 6.64854145 205.39754295 C6.65281493 204.25422571 6.65708841 203.11090847 6.66149139 201.93294525 C6.79571247 199.13701439 6.79571247 199.13701439 7.79571247 196.13701439 C8.02131923 193.74446863 8.20419842 191.34773316 8.35821247 188.94951439 C8.48389606 187.04105736 8.48389606 187.04105736 8.61211872 185.09404564 C8.67270466 184.11822533 8.7332906 183.14240501 8.79571247 182.13701439 C10.44571247 182.13701439 12.09571247 182.13701439 13.79571247 182.13701439 C13.82544147 183.25729027 13.82544147 183.25729027 13.85577106 184.40019798 C13.95079458 187.77117044 14.06056506 191.14150368 14.17071247 194.51201439 C14.20164997 195.68763939 14.23258747 196.86326439 14.26446247 198.07451439 C14.30313435 199.19599876 14.34180622 200.31748314 14.38164997 201.47295189 C14.41307087 202.50984154 14.44449177 203.54673119 14.47686481 204.61504173 C14.55525719 207.30511274 14.55525719 207.30511274 16.79571247 209.13701439 C19.92385761 209.38061512 19.92385761 209.38061512 23.42071247 209.26201439 C24.6092281 209.24396751 25.79774372 209.22592064 27.02227497 209.20732689 C27.93750935 209.18412376 28.85274372 209.16092064 29.79571247 209.13701439 C29.79571247 208.47701439 29.79571247 207.81701439 29.79571247 207.13701439 C29.46571247 207.46701439 29.13571247 207.79701439 28.79571247 208.13701439 C26.96455364 208.2355261 25.12951314 208.26674068 23.29571247 208.26201439 C22.29539997 208.26459251 21.29508747 208.26717064 20.26446247 208.26982689 C17.79571247 208.13701439 17.79571247 208.13701439 16.79571247 207.13701439 C16.70804135 205.06439362 16.68875374 202.98881145 16.69805622 200.91435814 C16.70289021 199.02427025 16.70289021 199.02427025 16.70782185 197.09599876 C16.71617844 195.7555033 16.7246434 194.41500851 16.73321247 193.07451439 C16.73822587 191.73011497 16.74278905 190.38571379 16.74688435 189.04131126 C16.75871759 185.73983498 16.77520276 182.43844636 16.79571247 179.13701439 C16.15762653 179.14861595 15.5195406 179.16021751 14.86211872 179.17217064 C14.03582966 179.18119408 13.2095406 179.19021751 12.35821247 179.19951439 C11.53450153 179.21111595 10.7107906 179.22271751 9.86211872 179.23467064 C7.79571247 179.13701439 7.79571247 179.13701439 6.79571247 178.13701439 C5.97804637 174.2088453 5.86254999 170.62291165 8.04253864 167.15166283 C13.04310761 162.1952745 17.36478494 161.36298856 24.33619404 161.34169579 C25.73569545 161.36425401 27.13505271 161.39856781 28.53399372 161.4441433 C30.68756198 161.5125496 32.83646189 161.52616657 34.99102497 161.53154564 C42.52778441 161.63596459 42.52778441 161.63596459 45.79571247 162.13701439 C46.45571247 163.12701439 47.11571247 164.11701439 47.79571247 165.13701439 C48.12571247 163.81701439 48.45571247 162.49701439 48.79571247 161.13701439 C43.76037012 161.03791599 38.72559905 160.96543858 33.6895113 160.91728783 C31.97749661 160.89720934 30.26555019 160.86994047 28.55376911 160.83525658 C26.08867239 160.78657038 23.62448457 160.76400866 21.15899372 160.74638939 C20.39734409 160.72574425 19.63569447 160.70509911 18.85096455 160.68382835 C13.8528498 160.68173214 11.3338644 161.6019205 7.79571247 165.13701439 C6.79571247 164.13701439 6.79571247 164.13701439 6.68218708 161.820364 C6.6900423 160.3200161 6.6900423 160.3200161 6.69805622 158.78935814 C6.70289021 157.16997337 6.70289021 157.16997337 6.70782185 155.51787376 C6.72039021 153.81341087 6.72039021 153.81341087 6.73321247 152.07451439 C6.73772419 150.93433861 6.74223591 149.79416283 6.74688435 148.61943626 C6.758715 145.79191088 6.77519838 142.96448799 6.79571247 140.13701439 C5.57874935 140.14700714 5.57874935 140.14700714 4.33720112 140.15720177 C-3.32771153 140.21744033 -10.99250857 140.26305331 -18.65759659 140.2924509 C-22.59782394 140.30807286 -26.53785485 140.32924712 -30.47796917 140.36333275 C-34.28404374 140.39605084 -38.08992997 140.41389348 -41.89613438 140.42164612 C-43.34453513 140.42716739 -44.79292617 140.43794899 -46.24124622 140.45420456 C-61.72488137 140.62099696 -61.72488137 140.62099696 -68.45428753 135.38701439 C-74.10034088 128.12780294 -73.67851977 120.65737426 -73.67303753 111.80498314 C-73.68015153 110.40404524 -73.68785231 109.00311021 -73.69610882 107.60217857 C-73.70951261 104.67287148 -73.71114167 101.74383368 -73.70526409 98.81450462 C-73.69937949 95.08559471 -73.72992484 91.35799201 -73.77038097 87.62933445 C-73.79640728 84.73710905 -73.79912191 81.84519193 -73.79548931 78.9528656 C-73.79716747 77.57950946 -73.80668263 76.20613703 -73.8246336 74.83289719 C-73.93361508 65.46420861 -73.08660816 57.57200466 -66.61206341 50.36455345 C-65.06736772 48.88215996 -63.46011887 47.57146348 -61.76678753 46.26201439 C-60.52156761 45.24821726 -59.2767887 44.23387825 -58.03241253 43.21904564 C-57.39883831 42.71196068 -56.76526409 42.20487572 -56.11249065 41.68242455 C-53.01855966 39.17672045 -50.02443979 36.55750489 -47.01678753 33.94951439 C-42.11936656 29.73775933 -37.14869707 25.62974331 -32.13006878 21.56279564 C-27.8791878 18.03836695 -23.72909954 14.39922184 -19.59320354 10.74077415 C-7.37287864 0.02306976 -7.37287864 0.02306976 0 0 Z " fill="#004051" transform="translate(287.2042875289917,81.86298561096191)"/>
<path d="M0 0 C0.86143826 -0.00507454 1.72287652 -0.01014909 2.61041898 -0.0153774 C3.55728772 -0.01587516 4.50415647 -0.01637292 5.47971821 -0.01688576 C6.48527439 -0.02126801 7.49083057 -0.02565027 8.52685815 -0.03016531 C11.91229517 -0.04357041 15.29770616 -0.04973603 18.68316364 -0.0558567 C21.1040938 -0.0637563 23.52502278 -0.07202516 25.94595051 -0.08063698 C33.22251065 -0.10460751 40.49907254 -0.11978704 47.77565834 -0.13269705 C49.83116344 -0.13640953 51.88666786 -0.14038272 53.94217229 -0.14444971 C66.70877869 -0.16968683 79.47538618 -0.19173818 92.24201202 -0.20417786 C95.19879568 -0.20710751 98.15557929 -0.21006918 101.11236286 -0.21308327 C101.84724972 -0.21382932 102.58213658 -0.21457537 103.33929274 -0.21534403 C115.24187907 -0.22799549 127.14431594 -0.26121614 139.04683241 -0.3028851 C151.26918113 -0.34532269 163.49145339 -0.36887498 175.71387559 -0.37409842 C182.57541072 -0.37751049 189.4367123 -0.38924124 196.29817486 -0.42220116 C202.75371781 -0.45316052 209.20896528 -0.45860823 215.66457462 -0.4468174 C218.03330406 -0.44659632 220.40205217 -0.45492978 222.77071667 -0.47247124 C226.00656504 -0.49512932 229.24093266 -0.48688211 232.47678852 -0.47098732 C233.41250366 -0.48486941 234.3482188 -0.49875149 235.31228894 -0.51305425 C241.55090351 -0.43763287 246.07601696 0.914649 250.79571247 5.13701439 C255.72071407 12.14505454 255.37951715 19.91466753 255.32696247 28.19170189 C255.32966465 29.54254497 255.33355306 30.89338614 255.33855915 32.24422264 C255.34442436 35.06333151 255.33599183 37.88193016 255.31719685 40.70097923 C255.29445202 44.28389829 255.30751929 47.86561543 255.3314867 51.44849014 C255.34606425 54.23525822 255.341284 57.02174977 255.33097553 59.80852699 C255.32707192 61.76193346 255.33905626 63.71535141 255.3514986 65.66872215 C255.25820151 74.63247152 254.44845164 83.92271025 247.72930622 90.51982689 C246.58273879 91.45735981 245.41654347 92.37133341 244.23321247 93.26201439 C243.61260944 93.76080101 242.99200642 94.25958763 242.35259724 94.773489 C241.09921363 95.77828888 239.83815716 96.77360199 238.56914997 97.75859642 C236.08369246 99.69043743 233.66132458 101.6963219 231.23321247 103.69951439 C230.35664997 104.41107689 229.48008747 105.12263939 228.57696247 105.85576439 C225.43186871 108.43544804 222.33110828 111.06355387 219.23321247 113.69951439 C213.83499203 118.28461705 208.35657662 122.74984064 202.79571247 127.13701439 C201.59886941 128.09245742 200.40227172 129.04820787 199.20586872 130.00420189 C197.94434703 131.00705399 196.68262916 132.00965936 195.42071247 133.01201439 C194.52751301 133.72744408 194.52751301 133.72744408 193.61626911 134.45732689 C186.67344792 139.9476874 184.45904105 140.13701439 174.79571247 140.13701439 C174.79571247 151.02701439 174.79571247 161.91701439 174.79571247 173.13701439 C171.02590152 169.36720344 169.92312351 164.48235597 169.43494892 159.32768822 C169.44161076 158.01308617 169.44827259 156.69848412 169.4551363 155.34404564 C169.45469822 154.61135963 169.45426014 153.87867363 169.45380878 153.12378502 C169.45587799 150.7320784 169.47911879 148.34109663 169.50274372 145.94951439 C169.50834636 144.27943365 169.5126133 142.60934794 169.51560688 140.93926048 C169.52700315 136.56621497 169.55642471 132.19347341 169.58971882 127.8205471 C169.62053287 123.34925509 169.63413633 118.87791347 169.6492281 114.40654564 C169.6813 105.6498965 169.73243233 96.89349337 169.79571247 88.13701439 C170.67188221 88.13336876 171.54805195 88.12972313 172.45077229 88.12596703 C180.71960206 88.08805474 188.98803871 88.0311653 197.25659084 87.95311165 C201.50727699 87.9136512 205.75775643 87.88145584 210.0086031 87.8660183 C214.1131848 87.85084204 218.21719817 87.81637998 222.32152653 87.76870537 C223.88510789 87.75390143 225.4487704 87.74597394 227.01242161 87.74513054 C229.20788687 87.74275599 231.40178765 87.71564123 233.596982 87.68291283 C234.84496571 87.67403038 236.09294941 87.66514793 237.3787508 87.65599632 C241.47440595 87.03393168 243.62096964 85.76678813 246.79571247 83.13701439 C249.20525676 79.85363703 249.05966371 76.71279607 249.08623981 72.71953392 C249.09899952 71.41783257 249.11175922 70.11613121 249.12490559 68.77498436 C249.1279633 67.35660005 249.13019103 65.93821374 249.13164997 64.51982689 C249.13807993 63.06017997 249.14480844 61.60053435 249.15182209 60.14089012 C249.16378827 57.08276444 249.16750362 54.02475167 249.16631794 50.96660423 C249.16611482 47.05695232 249.1934117 43.14802789 249.22786236 39.23854828 C249.25015221 36.22384408 249.25415485 33.20931436 249.25309849 30.19453621 C249.25545152 28.75368684 249.26425833 27.31283245 249.27976322 25.87206459 C249.29946088 23.85256701 249.291053 21.83285522 249.28155231 19.81328392 C249.28440235 18.6661895 249.28725239 17.51909508 249.29018879 16.33724022 C248.66727252 12.30575749 247.46063034 10.2146305 244.79571247 7.13701439 C239.57334461 4.75915097 234.58605359 4.85313095 228.96526814 4.87631798 C227.98023886 4.87249243 226.99520959 4.86866688 225.98033094 4.86472541 C222.68240892 4.85441343 219.38466157 4.85838416 216.0867281 4.86235619 C213.72122251 4.85800877 211.35571833 4.85282552 208.99021626 4.84686852 C202.56680397 4.83347175 196.1434505 4.83290052 189.72002697 4.83543181 C185.70808659 4.83671525 181.69615508 4.83409351 177.6842165 4.83044434 C177.01789972 4.82984915 176.35158294 4.82925396 175.66507474 4.82864073 C174.31140133 4.82742897 172.95772792 4.82621483 171.60405451 4.82499836 C158.91514567 4.81412691 146.22626343 4.81628363 133.5373531 4.8223832 C121.93110619 4.82755394 110.32494318 4.81629211 98.71871287 4.79728498 C86.79685517 4.77791081 74.87503717 4.76964972 62.95316362 4.77340823 C56.26171743 4.77532068 49.57035324 4.77256393 42.87891865 4.7586937 C36.58833749 4.74614225 30.29792465 4.74803412 24.00734615 4.76110458 C21.69745356 4.76347561 19.38754922 4.76071694 17.0776701 4.75248146 C13.926969 4.74205724 10.77683718 4.75008019 7.62615681 4.76279259 C6.25193365 4.75173116 6.25193365 4.75173116 4.84994841 4.74044627 C-0.236293 4.78368361 -3.82759954 5.2480936 -8.20428753 8.13701439 C-10.95248261 12.28056026 -11.58165167 15.5730287 -11.59247112 20.49028587 C-11.6019276 21.72854622 -11.61138409 22.96680656 -11.62112713 24.24258995 C-11.61575629 25.58109929 -11.60960306 26.91960569 -11.60272503 28.25810814 C-11.60474871 29.64524043 -11.60766259 31.03237168 -11.61142254 32.41950035 C-11.61583358 35.32031491 -11.60945558 38.22085142 -11.59540081 41.12163353 C-11.57832527 44.82479067 -11.58814688 48.52729463 -11.6061182 52.23042774 C-11.61700302 55.09334724 -11.61348805 57.95611408 -11.60573483 60.81903839 C-11.60374493 62.1836772 -11.6061492 63.54833024 -11.61317348 64.91295242 C-11.83447225 75.00160761 -11.83447225 75.00160761 -8.20428753 84.13701439 C-4.1821479 87.1927324 -1.10737787 87.52508641 3.88091755 87.56938744 C4.58528541 87.57966123 5.28965326 87.58993502 6.0153656 87.60052013 C8.28208036 87.63026936 10.54836119 87.63992785 12.81524372 87.64873314 C14.22000347 87.66420797 15.62474928 87.68100641 17.02947712 87.69914818 C22.2222352 87.75696329 27.4152526 87.78920368 32.60821247 87.82451439 C44.22008747 87.92763939 55.83196247 88.03076439 67.79571247 88.13701439 C67.79571247 111.89701439 67.79571247 135.65701439 67.79571247 160.13701439 C64.16571247 160.46701439 60.53571247 160.79701439 56.79571247 161.13701439 C56.13571247 162.12701439 55.47571247 163.11701439 54.79571247 164.13701439 C55.78571247 164.13701439 56.77571247 164.13701439 57.79571247 164.13701439 C57.79571247 176.01701439 57.79571247 187.89701439 57.79571247 200.13701439 C61.09571247 200.13701439 64.39571247 200.13701439 67.79571247 200.13701439 C68.12571247 196.50701439 68.45571247 192.87701439 68.79571247 189.13701439 C75.72930622 189.03935814 75.72930622 189.03935814 77.79571247 189.13701439 C78.79571247 190.13701439 78.79571247 190.13701439 78.89336872 192.64092064 C78.86081664 195.47295189 78.82826455 198.30498314 78.79571247 201.13701439 C82.42571247 201.13701439 86.05571247 201.13701439 89.79571247 201.13701439 C87.57643053 204.045039 85.86602104 206.09014201 82.79571247 208.13701439 C80.38555622 208.40263939 80.38555622 208.40263939 77.73321247 208.38701439 C76.85536091 208.39217064 75.97750935 208.39732689 75.07305622 208.40263939 C72.79571247 208.13701439 72.79571247 208.13701439 70.79571247 206.13701439 C70.17071247 203.51201439 70.17071247 203.51201439 69.79571247 201.13701439 C69.34582966 201.64232689 68.89594685 202.14763939 68.43243122 202.66826439 C64.42534564 206.71550113 61.73935775 208.64585099 55.92071247 208.69951439 C51.15233547 208.49363739 51.15233547 208.49363739 48.79571247 206.13701439 C48.55041666 203.56122054 48.42229454 201.08472432 48.38164997 198.50420189 C48.36228382 197.75236626 48.34291767 197.00053062 48.32296467 196.22591209 C48.263121 193.8213954 48.21676521 191.41683095 48.17071247 189.01201439 C48.13253702 187.38308711 48.09348554 185.7541801 48.05352497 184.12529564 C47.95741581 180.12936633 47.87340306 176.13334252 47.79571247 172.13701439 C46.14571247 174.11701439 44.49571247 176.09701439 42.79571247 178.13701439 C44.11571247 177.80701439 45.43571247 177.47701439 46.79571247 177.13701439 C47.12571247 187.69701439 47.45571247 198.25701439 47.79571247 209.13701439 C61.62380547 210.42325378 61.62380547 210.42325378 67.79571247 206.13701439 C67.80118092 208.05261665 67.80118092 208.05261665 67.80675983 210.00691795 C67.84370354 222.04300843 67.90146971 234.0788429 67.97961521 246.11473846 C68.01912158 252.3025131 68.05129474 258.49014474 68.06670856 264.67803001 C68.08185405 270.64987738 68.11626285 276.62133173 68.16402149 282.59300423 C68.17885692 284.8711194 68.18675472 287.14929067 68.18759632 289.42745399 C68.18996113 292.61899007 68.21700317 295.80943572 68.24981403 299.00078392 C68.24478367 299.94233833 68.2397533 300.88389275 68.2345705 301.85397911 C68.32324496 307.43026424 69.00679072 310.75319079 72.79571247 315.13701439 C76.57995577 317.65984325 79.58461858 317.41834626 83.96734333 317.39580345 C84.80016331 317.39930809 85.63298328 317.40281273 86.49104023 317.40642357 C89.24763003 317.41523532 92.00396374 317.40939316 94.76055622 317.40263939 C96.67482776 317.40398633 98.58909897 317.4059271 100.50336933 317.40843773 C104.51743543 317.41138834 108.53141257 317.40709381 112.54546833 317.39775658 C117.69158458 317.38636979 122.83749205 317.39291702 127.98360062 317.4049015 C131.93753857 317.41212834 135.89142703 317.40982824 139.84536648 317.40464592 C141.74279079 317.40331131 143.64021959 317.40495056 145.53763866 317.40960503 C148.19010919 317.41468288 150.84224173 317.40694193 153.49468708 317.39580345 C154.67229099 317.40187614 154.67229099 317.40187614 155.87368488 317.40807152 C161.19295898 317.43601048 161.19295898 317.43601048 165.79571247 315.13701439 C169.65692534 310.64639842 169.217571 305.87105498 169.1804781 300.25371361 C169.18585087 299.26293816 169.19122364 298.2721627 169.19675922 297.25136375 C169.20652942 295.10428758 169.20948367 292.95717195 169.20640278 290.81007576 C169.20192669 287.41456021 169.21591813 284.0195663 169.23479939 280.62410545 C169.27783483 272.19439349 169.28884923 263.76469295 169.30102253 255.33489037 C169.31253132 248.20632043 169.33603093 241.07798866 169.3757143 233.9495182 C169.38932863 230.59963433 169.38510627 227.25006836 169.3803072 223.90016747 C169.38964355 221.85394949 169.39981128 219.80773508 169.41094685 217.76152611 C169.40172451 216.35882469 169.40172451 216.35882469 169.39231586 214.92778587 C169.40461987 213.64507301 169.40461987 213.64507301 169.41717243 212.33644676 C169.4182412 211.22206136 169.4182412 211.22206136 169.41933155 210.08516312 C169.90200614 207.58683805 170.80498946 206.6754687 172.79571247 205.13701439 C173.45571247 205.13701439 174.11571247 205.13701439 174.79571247 205.13701439 C174.88852207 218.41104985 174.95953339 231.68500771 175.00296116 244.95930195 C175.02380765 251.12355537 175.05207215 257.28758628 175.09747028 263.45171165 C175.14103201 269.40395409 175.16487167 275.35598291 175.17522144 281.3083725 C175.18259422 283.5757038 175.19699148 285.84302382 175.2186327 288.11026382 C175.24780324 291.29383255 175.25166268 294.4765262 175.24981403 297.66020775 C175.27138569 299.05636063 175.27138569 299.05636063 175.29339314 300.48071861 C175.24994323 307.42673429 173.87706672 313.69205947 169.13209629 318.99693775 C167.4013423 320.64741254 165.60299634 322.14618344 163.73321247 323.63701439 C163.06563923 324.19179466 162.39806599 324.74657494 161.71026325 325.31816673 C159.75135036 326.94064843 157.77592619 328.54065112 155.79571247 330.13701439 C154.81473591 330.94396751 153.83375935 331.75092064 152.82305622 332.58232689 C151.06636677 334.02596859 149.30469257 335.46356761 147.53789997 336.89482689 C144.42570884 339.43955297 141.35851506 342.03327355 138.29571247 344.63701439 C133.40711827 348.78944382 128.47986288 352.88836165 123.49883747 356.92998314 C121.60076266 358.47971185 119.71645821 360.04638604 117.84258747 361.62529564 C116.87836872 362.43353783 115.91414997 363.24178001 114.92071247 364.07451439 C114.0570406 364.80541283 113.19336872 365.53631126 112.30352497 366.28935814 C107.21683528 370.03702827 102.64509557 370.43809724 96.46050739 370.44341087 C95.63382053 370.45173439 94.80713367 370.46005791 93.9553957 370.46863365 C91.22894261 370.49268158 88.50272904 370.50149958 85.77618122 370.50810814 C83.87435047 370.51707875 81.97252044 370.52620068 80.07069111 370.53546715 C76.08537807 370.55194577 72.10014893 370.55965515 68.11480427 370.5625515 C63.02043872 370.56793269 57.92686707 370.60560675 52.83272552 370.65129566 C48.90435155 370.68111141 44.97616766 370.68827605 41.04769039 370.68927765 C39.17028195 370.69347132 37.2928725 370.70587127 35.41557598 370.7267952 C32.78283234 370.75380257 30.15191487 370.74885696 27.51910114 370.73637962 C26.75155506 370.75121391 25.98400898 370.7660482 25.19320393 370.78133202 C19.37402431 370.70322195 15.08421017 369.15761273 10.79571247 365.13701439 C5.41331097 358.10058586 6.24832831 349.15868679 6.32574177 340.75078392 C6.32523224 339.2075441 6.32297188 337.66430402 6.31910419 336.12106895 C6.31371086 331.95400156 6.33302296 327.78738315 6.35720515 323.62039614 C6.37857425 319.25362546 6.37790917 314.88685516 6.37989521 310.52004051 C6.38633001 303.19502136 6.40753451 295.87016998 6.43902302 288.54521751 C6.4794031 279.13942518 6.49672628 269.73374175 6.5063324 260.32787323 C6.51462737 252.23722019 6.5318593 244.14659023 6.55136991 236.05595732 C6.55541935 234.31986544 6.55915883 232.58377282 6.56259227 230.84767962 C6.5723719 225.90399216 6.58685055 220.96037002 6.60943127 216.01672363 C6.61555689 214.51830385 6.6200053 213.01987616 6.62267399 211.52144623 C6.62665138 209.4801308 6.63740998 207.43883191 6.64854145 205.39754295 C6.65281493 204.25422571 6.65708841 203.11090847 6.66149139 201.93294525 C6.79571247 199.13701439 6.79571247 199.13701439 7.79571247 196.13701439 C8.02131923 193.74446863 8.20419842 191.34773316 8.35821247 188.94951439 C8.48389606 187.04105736 8.48389606 187.04105736 8.61211872 185.09404564 C8.67270466 184.11822533 8.7332906 183.14240501 8.79571247 182.13701439 C10.44571247 182.13701439 12.09571247 182.13701439 13.79571247 182.13701439 C13.82544147 183.25729027 13.82544147 183.25729027 13.85577106 184.40019798 C13.95079458 187.77117044 14.06056506 191.14150368 14.17071247 194.51201439 C14.20164997 195.68763939 14.23258747 196.86326439 14.26446247 198.07451439 C14.30313435 199.19599876 14.34180622 200.31748314 14.38164997 201.47295189 C14.41307087 202.50984154 14.44449177 203.54673119 14.47686481 204.61504173 C14.55525719 207.30511274 14.55525719 207.30511274 16.79571247 209.13701439 C19.92385761 209.38061512 19.92385761 209.38061512 23.42071247 209.26201439 C24.6092281 209.24396751 25.79774372 209.22592064 27.02227497 209.20732689 C27.93750935 209.18412376 28.85274372 209.16092064 29.79571247 209.13701439 C29.79571247 208.47701439 29.79571247 207.81701439 29.79571247 207.13701439 C29.46571247 207.46701439 29.13571247 207.79701439 28.79571247 208.13701439 C26.96455364 208.2355261 25.12951314 208.26674068 23.29571247 208.26201439 C22.29539997 208.26459251 21.29508747 208.26717064 20.26446247 208.26982689 C17.79571247 208.13701439 17.79571247 208.13701439 16.79571247 207.13701439 C16.70804135 205.06439362 16.68875374 202.98881145 16.69805622 200.91435814 C16.70289021 199.02427025 16.70289021 199.02427025 16.70782185 197.09599876 C16.71617844 195.7555033 16.7246434 194.41500851 16.73321247 193.07451439 C16.73822587 191.73011497 16.74278905 190.38571379 16.74688435 189.04131126 C16.75871759 185.73983498 16.77520276 182.43844636 16.79571247 179.13701439 C16.15762653 179.14861595 15.5195406 179.16021751 14.86211872 179.17217064 C14.03582966 179.18119408 13.2095406 179.19021751 12.35821247 179.19951439 C11.53450153 179.21111595 10.7107906 179.22271751 9.86211872 179.23467064 C7.79571247 179.13701439 7.79571247 179.13701439 6.79571247 178.13701439 C5.97804637 174.2088453 5.86254999 170.62291165 8.04253864 167.15166283 C13.04310761 162.1952745 17.36478494 161.36298856 24.33619404 161.34169579 C25.73569545 161.36425401 27.13505271 161.39856781 28.53399372 161.4441433 C30.68756198 161.5125496 32.83646189 161.52616657 34.99102497 161.53154564 C42.52778441 161.63596459 42.52778441 161.63596459 45.79571247 162.13701439 C46.45571247 163.12701439 47.11571247 164.11701439 47.79571247 165.13701439 C48.12571247 163.81701439 48.45571247 162.49701439 48.79571247 161.13701439 C43.76037012 161.03791599 38.72559905 160.96543858 33.6895113 160.91728783 C31.97749661 160.89720934 30.26555019 160.86994047 28.55376911 160.83525658 C26.08867239 160.78657038 23.62448457 160.76400866 21.15899372 160.74638939 C20.39734409 160.72574425 19.63569447 160.70509911 18.85096455 160.68382835 C13.8528498 160.68173214 11.3338644 161.6019205 7.79571247 165.13701439 C6.79571247 164.13701439 6.79571247 164.13701439 6.68218708 161.820364 C6.6900423 160.3200161 6.6900423 160.3200161 6.69805622 158.78935814 C6.70289021 157.16997337 6.70289021 157.16997337 6.70782185 155.51787376 C6.72039021 153.81341087 6.72039021 153.81341087 6.73321247 152.07451439 C6.73772419 150.93433861 6.74223591 149.79416283 6.74688435 148.61943626 C6.758715 145.79191088 6.77519838 142.96448799 6.79571247 140.13701439 C5.57874935 140.14700714 5.57874935 140.14700714 4.33720112 140.15720177 C-3.32771153 140.21744033 -10.99250857 140.26305331 -18.65759659 140.2924509 C-22.59782394 140.30807286 -26.53785485 140.32924712 -30.47796917 140.36333275 C-34.28404374 140.39605084 -38.08992997 140.41389348 -41.89613438 140.42164612 C-43.34453513 140.42716739 -44.79292617 140.43794899 -46.24124622 140.45420456 C-61.72488137 140.62099696 -61.72488137 140.62099696 -68.45428753 135.38701439 C-74.10034088 128.12780294 -73.67851977 120.65737426 -73.67303753 111.80498314 C-73.68015153 110.40404524 -73.68785231 109.00311021 -73.69610882 107.60217857 C-73.70951261 104.67287148 -73.71114167 101.74383368 -73.70526409 98.81450462 C-73.69937949 95.08559471 -73.72992484 91.35799201 -73.77038097 87.62933445 C-73.79640728 84.73710905 -73.79912191 81.84519193 -73.79548931 78.9528656 C-73.79716747 77.57950946 -73.80668263 76.20613703 -73.8246336 74.83289719 C-73.93361508 65.46420861 -73.08660816 57.57200466 -66.61206341 50.36455345 C-65.06736772 48.88215996 -63.46011887 47.57146348 -61.76678753 46.26201439 C-60.52156761 45.24821726 -59.2767887 44.23387825 -58.03241253 43.21904564 C-57.39883831 42.71196068 -56.76526409 42.20487572 -56.11249065 41.68242455 C-53.01855966 39.17672045 -50.02443979 36.55750489 -47.01678753 33.94951439 C-42.11936656 29.73775933 -37.14869707 25.62974331 -32.13006878 21.56279564 C-27.8791878 18.03836695 -23.72909954 14.39922184 -19.59320354 10.74077415 C-7.37287864 0.02306976 -7.37287864 0.02306976 0 0 Z " fill="#31FA6A" transform="translate(287.2042875289917,81.86298561096191)"/>
<path d="M0 0 C2.15356826 0.0684063 4.30246816 0.08202327 6.45703125 0.08740234 C13.99379069 0.19182129 13.99379069 0.19182129 17.26171875 0.69287109 C17.92171875 1.68287109 18.58171875 2.67287109 19.26171875 3.69287109 C19.92171875 3.03287109 20.58171875 2.37287109 21.26171875 1.69287109 C23.69921875 2.06787109 23.69921875 2.06787109 26.26171875 2.69287109 C27.25171875 2.69287109 28.24171875 2.69287109 29.26171875 2.69287109 C29.26171875 14.57287109 29.26171875 26.45287109 29.26171875 38.69287109 C32.56171875 38.69287109 35.86171875 38.69287109 39.26171875 38.69287109 C39.59171875 35.06287109 39.92171875 31.43287109 40.26171875 27.69287109 C47.1953125 27.59521484 47.1953125 27.59521484 49.26171875 27.69287109 C50.26171875 28.69287109 50.26171875 28.69287109 50.359375 31.19677734 C50.32682292 34.02880859 50.29427083 36.86083984 50.26171875 39.69287109 C53.89171875 39.69287109 57.52171875 39.69287109 61.26171875 39.69287109 C59.04243681 42.6008957 57.33202732 44.64599871 54.26171875 46.69287109 C51.8515625 46.95849609 51.8515625 46.95849609 49.19921875 46.94287109 C48.32136719 46.94802734 47.44351563 46.95318359 46.5390625 46.95849609 C44.26171875 46.69287109 44.26171875 46.69287109 42.26171875 44.69287109 C41.63671875 42.06787109 41.63671875 42.06787109 41.26171875 39.69287109 C40.81183594 40.19818359 40.36195313 40.70349609 39.8984375 41.22412109 C35.89135192 45.27135783 33.20536403 47.2017077 27.38671875 47.25537109 C22.61834175 47.04949409 22.61834175 47.04949409 20.26171875 44.69287109 C20.01642294 42.11707724 19.88830082 39.64058103 19.84765625 37.06005859 C19.8282901 36.30822296 19.80892395 35.55638733 19.78897095 34.7817688 C19.72912728 32.37725211 19.68277149 29.97268766 19.63671875 27.56787109 C19.59854329 25.93894381 19.55949182 24.31003681 19.51953125 22.68115234 C19.42342209 18.68522304 19.33940934 14.68919923 19.26171875 10.69287109 C18.46944926 11.7966053 17.6779294 12.90087761 16.88671875 14.00537109 C16.44585937 14.62025391 16.005 15.23513672 15.55078125 15.86865234 C13.15986375 19.25216286 12.02531731 20.98317418 12.12890625 25.11474609 C12.17011146 39.27338695 12.17011146 39.27338695 9.421875 43.56787109 C7.43412559 45.24470715 5.59976614 46.56379126 3.26171875 47.69287109 C2.60171875 47.03287109 1.94171875 46.37287109 1.26171875 45.69287109 C0.93171875 46.02287109 0.60171875 46.35287109 0.26171875 46.69287109 C-1.56944008 46.7913828 -3.40448058 46.82259738 -5.23828125 46.81787109 C-6.23859375 46.82044922 -7.23890625 46.82302734 -8.26953125 46.82568359 C-10.73828125 46.69287109 -10.73828125 46.69287109 -11.73828125 45.69287109 C-11.82595237 43.62025033 -11.84523998 41.54466815 -11.8359375 39.47021484 C-11.83271484 38.21015625 -11.82949219 36.95009766 -11.82617188 35.65185547 C-11.81781528 34.31136001 -11.80935032 32.97086521 -11.80078125 31.63037109 C-11.79576785 30.28597168 -11.79120467 28.9415705 -11.78710938 27.59716797 C-11.77527613 24.29569169 -11.75879096 20.99430306 -11.73828125 17.69287109 C-12.37636719 17.70447266 -13.01445312 17.71607422 -13.671875 17.72802734 C-14.91130859 17.7415625 -14.91130859 17.7415625 -16.17578125 17.75537109 C-17.41134766 17.77277344 -17.41134766 17.77277344 -18.671875 17.79052734 C-20.73828125 17.69287109 -20.73828125 17.69287109 -21.73828125 16.69287109 C-22.55594735 12.76470201 -22.67144373 9.17876836 -20.49145508 5.70751953 C-14.44462849 -0.2858826 -8.09558424 -0.26374246 0 0 Z " fill="#055654" transform="translate(315.73828125,243.30712890625)"/>
<path d="M0 0 C0.94875 0.06316406 1.8975 0.12632812 2.875 0.19140625 C3.57625 0.27261719 4.2775 0.35382813 5 0.4375 C5.66 2.4175 6.32 4.3975 7 6.4375 C7.37769531 6.004375 7.75539063 5.57125 8.14453125 5.125 C10.94847842 2.28821972 12.87294958 0.59160073 16.9140625 0.0390625 C19.63169066 0.06012938 22.29571783 0.17342905 25 0.4375 C26.11346788 3.23783839 26.03510273 4.33893703 25.00390625 7.234375 C24.29041016 8.69617188 24.29041016 8.69617188 23.5625 10.1875 C23.08941406 11.17234375 22.61632812 12.1571875 22.12890625 13.171875 C21.75636719 13.91953125 21.38382812 14.6671875 21 15.4375 C22.2065625 15.870625 22.2065625 15.870625 23.4375 16.3125 C26 17.4375 26 17.4375 27 19.4375 C27.89289636 26.68491769 28.84935411 35.63031011 25.6015625 42.31640625 C21.7649981 46.06684369 18.28310025 46.78615097 13 46.875 C11.33066077 46.76386193 9.66192721 46.62996583 8 46.4375 C7.01 42.9725 7.01 42.9725 6 39.4375 C5.55011719 39.9428125 5.10023438 40.448125 4.63671875 40.96875 C1.61046706 44.02532485 -0.60999831 46.20153154 -4.9453125 46.9375 C-7.68648117 46.9375 -10.29103951 46.8564605 -13 46.4375 C-15.87296045 43.56453955 -14.45978677 33.55947316 -14.51489258 29.51123047 C-14.54644774 27.72245726 -14.59411449 25.93389056 -14.65844727 24.14599609 C-15.17980776 9.45805945 -15.17980776 9.45805945 -12.39013672 4.68041992 C-8.66613005 1.18123718 -5.19307049 -0.45439367 0 0 Z " fill="#034D52" transform="translate(480,243.5625)"/>
<path d="M0 0 C1.19109375 -0.01063477 1.19109375 -0.01063477 2.40625 -0.02148438 C7.03888158 0.02870247 10.28653001 0.37334008 14 3.4375 C14.8125 6.125 14.8125 6.125 15 8.4375 C14.34 8.4375 13.68 8.4375 13 8.4375 C13.28875 8.91574219 13.5775 9.39398438 13.875 9.88671875 C18.32542076 18.74120172 18.73111917 29.76608851 17 39.4375 C15.06281176 43.34329034 13.11570873 45.03921434 9 46.4375 C5.55078773 47.01905323 2.43352884 47.1586687 -1 46.4375 C-3.35953094 44.07796906 -3.49141413 42.65854383 -4 39.4375 C-4.53367187 39.9428125 -5.06734375 40.448125 -5.6171875 40.96875 C-10.79012731 45.47941032 -14.12901419 47.20731394 -21.03125 46.78125 C-23 46.4375 -23 46.4375 -24 45.4375 C-25.60699041 31.55535826 -24.37932256 18.40018459 -16.109375 6.78125 C-10.86003289 0.94864765 -7.64563433 -0.19238203 0 0 Z " fill="#044F53" transform="translate(445,243.5625)"/>
<path d="M0 0 C0.495 6.93 0.495 6.93 1 14 C3.97 14.33 6.94 14.66 10 15 C9.98839844 14.07316406 9.97679687 13.14632813 9.96484375 12.19140625 C9.95582031 10.99386719 9.94679687 9.79632813 9.9375 8.5625 C9.92589844 7.36753906 9.91429687 6.17257813 9.90234375 4.94140625 C10 2 10 2 11 1 C12.68608966 0.92794489 14.37500659 0.91613932 16.0625 0.9375 C16.98160156 0.94652344 17.90070313 0.95554688 18.84765625 0.96484375 C19.55792969 0.97644531 20.26820313 0.98804688 21 1 C21.17353916 6.4441714 21.30029559 11.88672099 21.38452148 17.33300781 C21.41964208 19.18387913 21.46735189 21.03455735 21.52807617 22.88476562 C21.61337551 25.55126591 21.6527688 28.21519309 21.68359375 30.8828125 C21.71972275 31.70492218 21.75585175 32.52703186 21.79307556 33.37405396 C21.79543855 36.86169511 21.72483352 39.09724165 19.49351501 41.87628174 C16.76619039 44.29783744 14.78179168 45.81681869 11.19921875 46.65625 C10.37035156 46.6046875 9.54148438 46.553125 8.6875 46.5 C7.84574219 46.4690625 7.00398438 46.438125 6.13671875 46.40625 C4 46 4 46 2 44 C1.5859375 41.1796875 1.5859375 41.1796875 1.375 37.875 C1.30023438 36.77929688 1.22546875 35.68359375 1.1484375 34.5546875 C1.09945312 33.71164062 1.05046875 32.86859375 1 32 C0.979375 33.19625 0.95875 34.3925 0.9375 35.625 C0.47583017 39.13119523 -0.40654703 41.01657666 -2.9375 43.5 C-6.77751149 46.43179301 -10.14549715 46.57964482 -14.86328125 46.40625 C-17 46 -17 46 -19 44 C-19.27356957 41.28562385 -19.4248328 38.67781269 -19.4765625 35.95703125 C-19.50077774 34.75429817 -19.50077774 34.75429817 -19.52548218 33.52726746 C-19.55316799 31.82677865 -19.5746106 30.12617861 -19.59033203 28.42553711 C-19.62465972 25.83814821 -19.71236594 23.25594612 -19.80078125 20.66992188 C-20.02810619 8.73325767 -20.02810619 8.73325767 -17.38574219 4.27856445 C-11.87066499 -0.90610734 -7.25828791 -0.63510019 0 0 Z " fill="#024852" transform="translate(230,244)"/>
<path d="M0 0 C1.24716797 0.03158203 2.49433594 0.06316406 3.77929688 0.09570312 C6.83305847 0.17760478 9.8855965 0.30313947 12.9375 0.4375 C12.9375 4.3975 12.9375 8.3575 12.9375 12.4375 C11.9475 12.7675 10.9575 13.0975 9.9375 13.4375 C9.98970703 14.70207031 9.98970703 14.70207031 10.04296875 15.9921875 C10.07003906 17.08789062 10.09710938 18.18359375 10.125 19.3125 C10.17720703 20.94832031 10.17720703 20.94832031 10.23046875 22.6171875 C10.13378906 23.54789062 10.03710938 24.47859375 9.9375 25.4375 C8.9475 26.0975 7.9575 26.7575 6.9375 27.4375 C9.2475 28.0975 11.5575 28.7575 13.9375 29.4375 C14.15685117 30.95163238 14.31025748 32.47536196 14.4375 34 C14.5303125 34.84691406 14.623125 35.69382812 14.71875 36.56640625 C13.63508804 40.54886397 11.74631393 42.44843934 8.57128906 45.02612305 C3.36893401 47.81392566 -2.18014298 47.27686968 -7.9375 47.0625 C-9.17242187 47.05605469 -10.40734375 47.04960937 -11.6796875 47.04296875 C-18.31153402 46.9193488 -18.31153402 46.9193488 -21.0625 46.4375 C-24.53668341 41.22622489 -23.63415571 34.35243091 -23.70776367 28.21484375 C-23.73580903 26.53666144 -23.78351105 24.85868701 -23.85131836 23.18164062 C-24.3931871 9.73163709 -24.3931871 9.73163709 -21.50463867 4.75170898 C-15.33949281 -0.89032493 -7.90469759 -0.38241759 0 0 Z " fill="#024952" transform="translate(404.0625,243.5625)"/>
<path d="M0 0 C0.83982422 -0.00128906 1.67964844 -0.00257813 2.54492188 -0.00390625 C3.84719727 0.00189453 3.84719727 0.00189453 5.17578125 0.0078125 C6.49545898 0.00201172 6.49545898 0.00201172 7.84179688 -0.00390625 C8.67775391 -0.00261719 9.51371094 -0.00132812 10.375 0 C11.14030029 0.00112793 11.90560059 0.00225586 12.6940918 0.00341797 C14.48828125 0.1328125 14.48828125 0.1328125 15.48828125 1.1328125 C15.56033636 2.81890216 15.57214193 4.50781909 15.55078125 6.1953125 C15.54175781 7.11441406 15.53273438 8.03351563 15.5234375 8.98046875 C15.51183594 9.69074219 15.50023437 10.40101563 15.48828125 11.1328125 C13.50828125 12.1228125 13.50828125 12.1228125 11.48828125 13.1328125 C11.48828125 14.1228125 11.48828125 15.1128125 11.48828125 16.1328125 C12.69484375 16.5659375 12.69484375 16.5659375 13.92578125 17.0078125 C16.48828125 18.1328125 16.48828125 18.1328125 17.48828125 20.1328125 C17.96957504 25.8452175 18.28372583 31.23066242 16.05078125 36.5703125 C8.1916817 44.42941205 1.62134399 46.31228409 -9.13671875 46.3203125 C-10.008125 46.33255859 -10.87953125 46.34480469 -11.77734375 46.35742188 C-13.02644531 46.36032227 -13.02644531 46.36032227 -14.30078125 46.36328125 C-15.06084473 46.36739014 -15.8209082 46.37149902 -16.60400391 46.37573242 C-18.51171875 46.1328125 -18.51171875 46.1328125 -20.51171875 44.1328125 C-21.07183806 41.07868824 -21.07038801 38.18650952 -20.51171875 35.1328125 C-18.01171875 32.5703125 -18.01171875 32.5703125 -15.51171875 31.1328125 C-16.33671875 30.3696875 -17.16171875 29.6065625 -18.01171875 28.8203125 C-21.1779819 25.03338982 -21.11683646 21.53005893 -20.8515625 16.7421875 C-20.07353211 10.76834498 -17.61408125 8.01641766 -13.07421875 4.3203125 C-8.71333574 0.97770674 -5.45379781 0.00800264 0 0 Z " fill="#045053" transform="translate(648.51171875,243.8671875)"/>
<path d="M0 0 C0.87527344 0.00064453 1.75054687 0.00128906 2.65234375 0.00195312 C9.10950307 0.04700307 9.10950307 0.04700307 10.25 1.1875 C10.32205511 2.87358966 10.33386068 4.56250659 10.3125 6.25 C10.30347656 7.16910156 10.29445313 8.08820313 10.28515625 9.03515625 C10.27355469 9.74542969 10.26195312 10.45570313 10.25 11.1875 C8.27 12.1775 8.27 12.1775 6.25 13.1875 C6.25 14.1775 6.25 15.1675 6.25 16.1875 C6.86875 16.290625 7.4875 16.39375 8.125 16.5 C10.25 17.1875 10.25 17.1875 12.25 20.1875 C12.55078125 23.1484375 12.55078125 23.1484375 12.5625 26.5625 C12.57925781 27.68398438 12.59601563 28.80546875 12.61328125 29.9609375 C12.08075035 34.69072809 10.51437372 37.11520977 6.91015625 40.171875 C6.05292969 40.75453125 5.19570313 41.3371875 4.3125 41.9375 C3.45785156 42.53046875 2.60320312 43.1234375 1.72265625 43.734375 C-2.01425997 45.93047742 -5.18618267 46.31433695 -9.48046875 46.3203125 C-10.80788086 46.32224609 -10.80788086 46.32224609 -12.16210938 46.32421875 C-13.07798828 46.32035156 -13.99386719 46.31648438 -14.9375 46.3125 C-15.86498047 46.31636719 -16.79246094 46.32023437 -17.74804688 46.32421875 C-18.62912109 46.32292969 -19.51019531 46.32164062 -20.41796875 46.3203125 C-21.62876099 46.31862061 -21.62876099 46.31862061 -22.86401367 46.31689453 C-24.75 46.1875 -24.75 46.1875 -25.75 45.1875 C-26.1809604 41.80753913 -26.25401073 38.56008244 -25.75 35.1875 C-23.25 32.5625 -23.25 32.5625 -20.75 31.1875 C-21.575 30.40375 -22.4 29.62 -23.25 28.8125 C-26.231863 25.22918168 -26.36417133 22.19969507 -26.09765625 17.6484375 C-25.47245945 13.22288714 -24.47783872 9.69593063 -21.02734375 6.68359375 C-19.31551832 5.44981402 -17.53564328 4.31179392 -15.75 3.1875 C-15.42 2.8575 -15.09 2.5275 -14.75 2.1875 C-9.97573563 -0.38105423 -5.27018697 -0.07506263 0 0 Z " fill="#044F53" transform="translate(281.75,243.8125)"/>
<path d="M0 0 C1.2890625 0.01933594 2.578125 0.03867188 3.90625 0.05859375 C5.25262892 0.10871443 6.59898309 0.15950396 7.9453125 0.2109375 C9.31504574 0.24106645 10.68484259 0.26843714 12.0546875 0.29296875 C15.39485497 0.36353567 18.73176541 0.46209944 22.0703125 0.5859375 C22.12426705 2.37336927 22.16308412 4.16126328 22.1953125 5.94921875 C22.21851563 6.94477783 22.24171875 7.94033691 22.265625 8.96606445 C22.00725375 12.43179179 20.5772877 13.31399122 18.0703125 15.5859375 C17.8277395 17.52543908 17.8277395 17.52543908 17.9453125 19.6484375 C18.0703125 23.5859375 18.0703125 23.5859375 16.0703125 26.5859375 C18.3803125 27.2459375 20.6903125 27.9059375 23.0703125 28.5859375 C23.28966367 30.10006988 23.44306998 31.62379946 23.5703125 33.1484375 C23.663125 33.99535156 23.7559375 34.84226562 23.8515625 35.71484375 C22.76776517 39.69779894 20.88337023 41.60380838 17.70849609 44.18334961 C12.48926222 46.95815052 6.89369255 46.34238367 1.1328125 46.0859375 C-0.11048828 46.06273437 -1.35378906 46.03953125 -2.63476562 46.015625 C-11.71852679 45.79709821 -11.71852679 45.79709821 -12.9296875 44.5859375 C-13.24658004 39.26251354 -13.28660277 33.93664498 -13.3347168 28.60473633 C-13.35625888 26.80929282 -13.39031707 25.01395325 -13.43725586 23.21899414 C-13.50439937 20.62859259 -13.53174101 18.04036884 -13.55078125 15.44921875 C-13.57861191 14.6521199 -13.60644257 13.85502106 -13.63511658 13.0337677 C-13.61974655 8.83959123 -13.16209531 6.25931139 -10.32397461 3.06860352 C-7.00905576 0.22039514 -4.38871578 -0.11651458 0 0 Z " fill="#024B52" transform="translate(145.9296875,244.4140625)"/>
<path d="M0 0 C1.5159375 0.00966797 1.5159375 0.00966797 3.0625 0.01953125 C8.49562456 0.14074269 12.75616671 0.4710394 17.375 3.625 C19.94128339 7.47442509 19.66964462 10.66797887 19.625 15.125 C19.63660156 16.28322266 19.63660156 16.28322266 19.6484375 17.46484375 C19.63493153 21.36131468 19.58175169 23.31487247 17.375 26.625 C16.715 26.625 16.055 26.625 15.375 26.625 C14.88 28.11 14.88 28.11 14.375 29.625 C10.5179854 33.30138306 6.74527643 35.23205294 1.375 35.625 C1.375 36.32625 1.375 37.0275 1.375 37.75 C-0.20962008 42.30578273 -3.35059549 44.54687488 -7.625 46.625 C-11.03985636 47.19662807 -14.21889937 47.28342837 -17.625 46.625 C-20.55876247 43.69123753 -20.02662634 40.5233822 -20.1015625 36.58203125 C-20.12577774 35.37929817 -20.12577774 35.37929817 -20.15048218 34.15226746 C-20.17816799 32.45177865 -20.1996106 30.75117861 -20.21533203 29.05053711 C-20.24965972 26.46314821 -20.33736594 23.88094612 -20.42578125 21.29492188 C-20.65492739 9.59893874 -20.65492739 9.59893874 -18.20849609 4.91015625 C-13.04701864 -0.32177145 -6.97479352 -0.31377606 0 0 Z " fill="#024952" transform="translate(606.625,243.375)"/>
<path d="M0 0 C60.72 0 121.44 0 184 0 C184 1.65 184 3.3 184 5 C154.3 5 124.6 5 94 5 C94 41.96 94 78.92 94 117 C92.68 117 91.36 117 90 117 C90 80.04 90 43.08 90 5 C60.3 5 30.6 5 0 5 C0 3.35 0 1.7 0 0 Z " fill="#2EF069" transform="translate(314,125)"/>
<path d="M0 0 C0.84304687 -0.00128906 1.68609375 -0.00257813 2.5546875 -0.00390625 C3.86953125 0.00189453 3.86953125 0.00189453 5.2109375 0.0078125 C6.09523437 0.00394531 6.97953125 0.00007812 7.890625 -0.00390625 C9.15132812 -0.00197266 9.15132812 -0.00197266 10.4375 0 C11.20916504 0.00112793 11.98083008 0.00225586 12.77587891 0.00341797 C14.5859375 0.1328125 14.5859375 0.1328125 15.5859375 1.1328125 C16.41024846 5.56879517 16.68070131 9.51768044 14.08203125 13.3515625 C10.64643048 16.63252762 7.92625768 18.54438221 3.0859375 18.5703125 C1.9309375 18.4259375 0.7759375 18.2815625 -0.4140625 18.1328125 C-0.0840625 21.1028125 0.2459375 24.0728125 0.5859375 27.1328125 C1.95878906 27.22369141 1.95878906 27.22369141 3.359375 27.31640625 C4.54789063 27.40019531 5.73640625 27.48398437 6.9609375 27.5703125 C8.14429688 27.65152344 9.32765625 27.73273438 10.546875 27.81640625 C13.5859375 28.1328125 13.5859375 28.1328125 15.5859375 29.1328125 C16.21685421 33.48789037 16.50146652 37.36092129 14.4375 41.35546875 C11.15717023 44.96976874 8.05016002 46.25340719 3.2578125 46.6640625 C-10.50431825 47.15829047 -10.50431825 47.15829047 -16.4140625 43.1328125 C-21.41935411 37.87767272 -20.98514651 32.41757026 -20.8515625 25.5703125 C-20.85865234 24.54228516 -20.86574219 23.51425781 -20.87304688 22.45507812 C-20.81275939 15.29941726 -19.76207306 11.78185005 -14.9765625 6.3828125 C-12.52395907 4.22930705 -11.4942963 3.68285425 -8.4140625 3.1328125 C-8.0840625 2.4728125 -7.7540625 1.8128125 -7.4140625 1.1328125 C-4.61533644 0.19990381 -2.89417305 0.00421803 0 0 Z " fill="#045253" transform="translate(192.4140625,243.8671875)"/>
<path d="M0 0 C1.20011719 0.01869141 2.40023437 0.03738281 3.63671875 0.05664062 C12.42833647 0.24083647 12.42833647 0.24083647 13.625 1.4375 C13.92230379 4.3609873 14.11909595 6.58449435 13.625 9.4375 C12.37808535 10.84427551 11.12644938 12.24924045 9.8046875 13.5859375 C7.26153371 17.57751001 7.70704088 22.82829417 7.625 27.4375 C8.40875 27.39625 9.1925 27.355 10 27.3125 C12.625 27.4375 12.625 27.4375 14.625 29.4375 C15.47184329 32.61154624 15.37457338 35.24994543 14.625 38.4375 C11.43656929 42.44337591 7.60572754 45.06626137 2.55737305 46.01245117 C-0.78034722 46.16036459 -4.03832978 46.0998872 -7.375 45.9375 C-9.09009766 45.90269531 -9.09009766 45.90269531 -10.83984375 45.8671875 C-19.16304182 45.64945818 -19.16304182 45.64945818 -20.375 44.4375 C-20.8719922 41.04033815 -20.96362436 37.82476566 -20.375 34.4375 C-17.4375 32.125 -17.4375 32.125 -15.77734375 31.0625 C-12.56134905 27.33588775 -13.38876075 21.13679462 -13.375 16.4375 C-15.685 16.4375 -17.995 16.4375 -20.375 16.4375 C-20.56632627 14.900816 -20.70087537 13.35702045 -20.8125 11.8125 C-20.89371094 10.95398438 -20.97492187 10.09546875 -21.05859375 9.2109375 C-20.15421138 5.54172901 -18.70347639 3.93023338 -15.75708008 1.61523438 C-10.81567767 -0.82786547 -5.38307485 -0.20930904 0 0 Z " fill="#004051" transform="translate(569.375,244.5625)"/>
<path d="M0 0 C1.45695606 0.0351679 2.91399408 0.06709729 4.37109375 0.09570312 C7.91578515 0.17227929 11.45736102 0.29275317 15 0.4375 C15.4156282 4.5146147 15.61971691 8.37531125 15 12.4375 C13.36175758 14.33420679 11.65541603 15.47851652 9.59863281 16.89404297 C7.45642734 18.9623116 7.43036549 20.2833612 7.2734375 23.22265625 C7.2734375 24.98209656 7.30812014 26.74183126 7.375 28.5 C7.64043613 37.6110953 7.64043613 37.6110953 4.7265625 41.37109375 C3.37691406 42.39396484 3.37691406 42.39396484 2 43.4375 C1.35417969 44.03046875 0.70835938 44.6234375 0.04296875 45.234375 C-2.65407129 46.82268921 -4.58010112 46.7704746 -7.6875 46.6875 C-8.66074219 46.67203125 -9.63398437 46.6565625 -10.63671875 46.640625 C-13 46.4375 -13 46.4375 -14 45.4375 C-14.08767112 43.36487924 -14.10695873 41.28929706 -14.09765625 39.21484375 C-14.09443359 37.95478516 -14.09121094 36.69472656 -14.08789062 35.39648438 C-14.07953403 34.05598891 -14.07106907 32.71549412 -14.0625 31.375 C-14.0574866 30.03060058 -14.05292342 28.6861994 -14.04882812 27.34179688 C-14.03699488 24.04032059 -14.02050971 20.73893197 -14 17.4375 C-14.63808594 17.44910156 -15.27617188 17.46070313 -15.93359375 17.47265625 C-17.17302734 17.48619141 -17.17302734 17.48619141 -18.4375 17.5 C-19.67306641 17.51740234 -19.67306641 17.51740234 -20.93359375 17.53515625 C-23 17.4375 -23 17.4375 -24 16.4375 C-24.81817213 12.50689987 -24.92732509 8.92424501 -22.75756836 5.44555664 C-16.10666907 -1.17817024 -8.7262343 -0.36730576 0 0 Z " fill="#004251" transform="translate(114,243.5625)"/>
<path d="M0 0 C1.46153366 0.03013471 2.9231271 0.05750437 4.38476562 0.08203125 C7.94526374 0.14775781 11.50349692 0.25108149 15.0625 0.375 C15.26144823 1.8152122 15.44946079 3.25693801 15.6328125 4.69921875 C15.79160889 5.90324341 15.79160889 5.90324341 15.95361328 7.1315918 C16.1122134 10.39925212 15.16579779 11.92115258 13.0625 14.375 C12.20527344 14.86742187 11.34804688 15.35984375 10.46484375 15.8671875 C7.2462273 19.22710906 7.61099645 21.33923677 7.67626953 25.84106445 C7.70060059 26.78038818 7.72493164 27.71971191 7.75 28.6875 C7.63207685 38.21423633 7.63207685 38.21423633 5.62109375 42.3125 C1.85638946 45.96312234 -1.64450945 46.74710035 -6.8125 46.9375 C-11.580877 46.731623 -11.580877 46.731623 -13.9375 44.375 C-14.16455078 41.66943359 -14.16455078 41.66943359 -14.1328125 38.2734375 C-14.12636719 37.06171875 -14.11992188 35.85 -14.11328125 34.6015625 C-14.09652344 33.33054687 -14.07976563 32.05953125 -14.0625 30.75 C-14.05347656 29.47125 -14.04445313 28.1925 -14.03515625 26.875 C-14.01152303 23.70814833 -13.97857629 20.54166576 -13.9375 17.375 C-16.9075 17.375 -19.8775 17.375 -22.9375 17.375 C-23.12850371 15.67112567 -23.26322126 13.96089908 -23.375 12.25 C-23.45621094 11.29867187 -23.53742188 10.34734375 -23.62109375 9.3671875 C-22.75163953 5.56146217 -21.54144741 3.91563627 -18.48022461 1.53076172 C-12.77397578 -1.06293794 -6.14412707 -0.22034875 0 0 Z " fill="#014651" transform="translate(530.9375,243.625)"/>
<path d="M0 0 C3.72901814 -0.08736736 7.45777165 -0.14051482 11.1875 -0.1875 C12.24259766 -0.21263672 13.29769531 -0.23777344 14.38476562 -0.26367188 C15.91713867 -0.27817383 15.91713867 -0.27817383 17.48046875 -0.29296875 C18.41785889 -0.3086792 19.35524902 -0.32438965 20.32104492 -0.34057617 C23.55787288 0.07092251 25.3796095 1.0816351 28 3 C30.20914 6.31371 30.22481553 7.3446021 30.125 11.1875 C30.10695313 12.08855469 30.08890625 12.98960937 30.0703125 13.91796875 C30.04710937 14.60503906 30.02390625 15.29210937 30 16 C29.01 16.33 28.02 16.66 27 17 C27 17.66 27 18.32 27 19 C27.61875 19.309375 28.2375 19.61875 28.875 19.9375 C33 22 33 22 33.61328125 23.71484375 C34.06101134 26.36052154 34.16924506 28.87902317 34.1875 31.5625 C34.20167969 32.51253906 34.21585937 33.46257812 34.23046875 34.44140625 C34 37 34 37 32 40 C28.37 39.67 24.74 39.34 21 39 C20.67 35.37 20.34 31.74 20 28 C17.03 27.67 14.06 27.34 11 27 C11.01160156 27.78246094 11.02320313 28.56492187 11.03515625 29.37109375 C11.04417969 30.38300781 11.05320312 31.39492188 11.0625 32.4375 C11.07410156 33.44683594 11.08570313 34.45617187 11.09765625 35.49609375 C11 38 11 38 10 39 C8.33570949 39.09823937 6.66718069 39.12973631 5 39.125 C3.63875 39.12886719 3.63875 39.12886719 2.25 39.1328125 C0 39 0 39 -1 38 C-1.1009825 35.35711643 -1.13970742 32.74093041 -1.1328125 30.09765625 C-1.13376923 29.30475693 -1.13472595 28.5118576 -1.13571167 27.69493103 C-1.13639351 26.0144747 -1.13453896 24.33401575 -1.13037109 22.65356445 C-1.1250299 20.07692555 -1.13031228 17.50046152 -1.13671875 14.92382812 C-1.13605783 13.29427045 -1.13477638 11.66471288 -1.1328125 10.03515625 C-1.13483673 9.26115982 -1.13686096 8.48716339 -1.13894653 7.68971252 C-1.11495583 2.22991166 -1.11495583 2.22991166 0 0 Z " fill="#045053" transform="translate(345,244)"/>
<path d="M0 0 C0 3.3 0 6.6 0 10 C2.31 10 4.62 10 7 10 C7 15.94 7 21.88 7 28 C5.02 28.33 3.04 28.66 1 29 C0.67 31.97 0.34 34.94 0 38 C12.375 37.505 12.375 37.505 25 37 C25 34.69 25 32.38 25 30 C22.69 29.67 20.38 29.34 18 29 C17.97316013 26.02077407 17.95323963 23.04178705 17.9375 20.0625 C17.92912109 19.21236328 17.92074219 18.36222656 17.91210938 17.48632812 C17.90727539 16.27299805 17.90727539 16.27299805 17.90234375 15.03515625 C17.89448853 13.91185913 17.89448853 13.91185913 17.88647461 12.76586914 C18 11 18 11 19 10 C20.99958364 9.95919217 23.00045254 9.95745644 25 10 C24.360625 10.5775 23.72125 11.155 23.0625 11.75 C20.00974558 16.56040091 20.17844882 21.40562954 20 27 C20.78375 26.95875 21.5675 26.9175 22.375 26.875 C25 27 25 27 27 29 C27.84684329 32.17404624 27.74957338 34.81244543 27 38 C23.81156929 42.00587591 19.98072754 44.62876137 14.93237305 45.57495117 C11.59465278 45.72286459 8.33667022 45.6623872 5 45.5 C3.28490234 45.46519531 3.28490234 45.46519531 1.53515625 45.4296875 C-6.78804182 45.21195818 -6.78804182 45.21195818 -8 44 C-8.4969922 40.60283815 -8.58862436 37.38726566 -8 34 C-5.0625 31.6875 -5.0625 31.6875 -3.40234375 30.625 C-0.18634905 26.89838775 -1.01376075 20.69929462 -1 16 C-3.31 16 -5.62 16 -8 16 C-9.07014059 7.40490252 -9.07014059 7.40490252 -6.4765625 4 C-1.76502404 0 -1.76502404 0 0 0 Z " fill="#2FF269" transform="translate(557,245)"/>
<path d="M0 0 C0.66 0.33 1.32 0.66 2 1 C2 12.88 2 24.76 2 37 C5.3 37 8.6 37 12 37 C12.33 33.37 12.66 29.74 13 26 C19.93359375 25.90234375 19.93359375 25.90234375 22 26 C23 27 23 27 23.09765625 29.50390625 C23.06510417 32.3359375 23.03255208 35.16796875 23 38 C26.63 38 30.26 38 34 38 C31.78071806 40.90802461 30.07030857 42.95312762 27 45 C24.58984375 45.265625 24.58984375 45.265625 21.9375 45.25 C21.05964844 45.25515625 20.18179687 45.2603125 19.27734375 45.265625 C17 45 17 45 15 43 C14.375 40.375 14.375 40.375 14 38 C13.55011719 38.5053125 13.10023438 39.010625 12.63671875 39.53125 C9.61046706 42.58782485 7.39000169 44.76403154 3.0546875 45.5 C0.31351883 45.5 -2.29103951 45.4189605 -5 45 C-7.85283267 42.14716733 -6.36864581 32.05075053 -6.4050293 28.01879883 C-6.42657138 26.22335532 -6.46062957 24.42801575 -6.50756836 22.63305664 C-6.57471187 20.04265509 -6.60205351 17.45443134 -6.62109375 14.86328125 C-6.64892441 14.0661824 -6.67675507 13.26908356 -6.70542908 12.4478302 C-6.68903343 7.97378263 -6.17521352 5.67814742 -2.96118164 2.44604492 C-1.9839917 1.6388501 -1.00680176 0.83165527 0 0 Z " fill="#30F86A" transform="translate(343,245)"/>
<path d="M0 0 C1.45695606 0.0351679 2.91399408 0.06709729 4.37109375 0.09570312 C7.91578515 0.17227929 11.45736102 0.29275317 15 0.4375 C15 0.7675 15 1.0975 15 1.4375 C5.1 1.7675 -4.8 2.0975 -15 2.4375 C-15.33 5.4075 -15.66 8.3775 -16 11.4375 C-13.03 11.4375 -10.06 11.4375 -7 11.4375 C-6.67 20.3475 -6.34 29.2575 -6 38.4375 C-2.37 38.7675 1.26 39.0975 5 39.4375 C4.99214478 38.21848999 4.99214478 38.21848999 4.98413086 36.97485352 C4.96343006 33.31657678 4.95036197 29.65831233 4.9375 26 C4.92912109 24.72060547 4.92074219 23.44121094 4.91210938 22.12304688 C4.90888672 20.90810547 4.90566406 19.69316406 4.90234375 18.44140625 C4.89448853 16.75253296 4.89448853 16.75253296 4.88647461 15.02954102 C5 12.4375 5 12.4375 6 11.4375 C7.51928038 11.36570036 9.04167482 11.35357993 10.5625 11.375 C11.38878906 11.38402344 12.21507812 11.39304688 13.06640625 11.40234375 C13.70449219 11.41394531 14.34257812 11.42554688 15 11.4375 C11.5 14.9375 11.5 14.9375 8 18.4375 C7.71216473 20.48705217 7.71216473 20.48705217 7.76171875 22.83203125 C7.74560547 23.70537109 7.72949219 24.57871094 7.71289062 25.47851562 C7.69607154 27.31438347 7.6907134 29.15039493 7.69726562 30.98632812 C7.54346915 37.73848942 7.54346915 37.73848942 4.70703125 41.38671875 C3.81371094 42.06347656 2.92039062 42.74023438 2 43.4375 C1.35417969 44.03046875 0.70835938 44.6234375 0.04296875 45.234375 C-2.65407129 46.82268921 -4.58010112 46.7704746 -7.6875 46.6875 C-8.66074219 46.67203125 -9.63398437 46.6565625 -10.63671875 46.640625 C-13 46.4375 -13 46.4375 -14 45.4375 C-14.08767112 43.36487924 -14.10695873 41.28929706 -14.09765625 39.21484375 C-14.09443359 37.95478516 -14.09121094 36.69472656 -14.08789062 35.39648438 C-14.07953403 34.05598891 -14.07106907 32.71549412 -14.0625 31.375 C-14.0574866 30.03060058 -14.05292342 28.6861994 -14.04882812 27.34179688 C-14.03699488 24.04032059 -14.02050971 20.73893197 -14 17.4375 C-14.63808594 17.44910156 -15.27617188 17.46070313 -15.93359375 17.47265625 C-17.17302734 17.48619141 -17.17302734 17.48619141 -18.4375 17.5 C-19.67306641 17.51740234 -19.67306641 17.51740234 -20.93359375 17.53515625 C-23 17.4375 -23 17.4375 -24 16.4375 C-24.81817213 12.50689987 -24.92732509 8.92424501 -22.75756836 5.44555664 C-16.10666907 -1.17817024 -8.7262343 -0.36730576 0 0 Z " fill="#2EEF69" transform="translate(114,243.5625)"/>
<path d="M0 0 C0.33 0.66 0.66 1.32 1 2 C0.3412963 3.66052638 -0.32717355 5.31789693 -1.04638672 6.953125 C-5.32277215 16.77592376 -5.66157279 25.41483543 -5 36 C-1.7 36 1.6 36 5 36 C5.33 33.36 5.66 30.72 6 28 C8.97 28 11.94 28 15 28 C15.33 30.64 15.66 33.28 16 36 C19.63 36.33 23.26 36.66 27 37 C20 44 20 44 17.6875 44.265625 C16.800625 44.26046875 15.91375 44.2553125 15 44.25 C13.6696875 44.25773437 13.6696875 44.25773437 12.3125 44.265625 C10 44 10 44 8 42 C7.375 39.375 7.375 39.375 7 37 C6.46632813 37.5053125 5.93265625 38.010625 5.3828125 38.53125 C0.20987269 43.04191032 -3.12901419 44.76981394 -10.03125 44.34375 C-12 44 -12 44 -13 43 C-14.61227083 29.07224284 -13.39030418 15.81762903 -4.984375 4.21875 C-3 2 -3 2 0 0 Z " fill="#2FF269" transform="translate(434,246)"/>
<path d="M0 0 C0.66 0.33 1.32 0.66 2 1 C1.67 13.21 1.34 25.42 1 38 C10.24 38 19.48 38 29 38 C22.2788125 44.7211875 21.42577827 45.26861227 12.32421875 45.32226562 C11.06222656 45.31904297 9.80023438 45.31582031 8.5 45.3125 C6.60701172 45.33666992 6.60701172 45.33666992 4.67578125 45.36132812 C3.47308594 45.36197266 2.27039063 45.36261719 1.03125 45.36328125 C-0.63067383 45.36775269 -0.63067383 45.36775269 -2.32617188 45.37231445 C-3.20853516 45.24945068 -4.09089844 45.12658691 -5 45 C-7.46939286 41.29591072 -7.37500408 38.34060576 -7.44140625 34.04296875 C-7.45517807 33.26238602 -7.46894989 32.48180328 -7.48313904 31.67756653 C-7.50640195 30.02592034 -7.52367205 28.37418047 -7.53540039 26.72241211 C-7.5623048 24.20575929 -7.63719849 21.69332663 -7.71289062 19.17773438 C-7.90072689 7.3944342 -7.90072689 7.3944342 -5.40185547 3.52587891 C-3.46484375 1.86328125 -3.46484375 1.86328125 0 0 Z " fill="#2EEE69" transform="translate(388,245)"/>
<path d="M0 0 C0 3.3 0 6.6 0 10 C3.3 10 6.6 10 10 10 C10 19.24 10 28.48 10 38 C15.445 37.505 15.445 37.505 21 37 C21.33 28.09 21.66 19.18 22 10 C24.97 10 27.94 10 31 10 C28.78071806 12.90802461 27.07030857 14.95312762 24 17 C23.62266216 19.11161128 23.62266216 19.11161128 23.76953125 21.54296875 C23.77944092 22.9028894 23.77944092 22.9028894 23.78955078 24.2902832 C23.79712402 25.24636475 23.80469727 26.20244629 23.8125 27.1875 C23.55653493 39.00058581 23.55653493 39.00058581 19.625 42.8125 C14.85042968 45.8225552 9.45957124 46.0386053 4 45 C2 43 2 43 1.77294922 40.29443359 C1.78865967 38.61341553 1.78865967 38.61341553 1.8046875 36.8984375 C1.81113281 35.68671875 1.81757812 34.475 1.82421875 33.2265625 C1.84097656 31.95554687 1.85773437 30.68453125 1.875 29.375 C1.88402344 28.09625 1.89304687 26.8175 1.90234375 25.5 C1.92597697 22.33314833 1.95892371 19.16666576 2 16 C-0.97 16 -3.94 16 -7 16 C-7.91731708 6.30022121 -7.91731708 6.30022121 -5.69921875 3.15625 C-1.85483285 0 -1.85483285 0 0 0 Z " fill="#2EF169" transform="translate(515,245)"/>
<path d="M0 0 C0 2.08362994 -0.03788653 4.16746635 -0.10546875 6.25 C-0.13253906 7.4875 -0.15960938 8.725 -0.1875 10 C-0.22230469 11.2375 -0.25710938 12.475 -0.29296875 13.75 C-0.2468624 16.88720615 -0.2468624 16.88720615 1.09375 18.83203125 C3.84107964 20.51533363 6.54272281 21.03363544 9.6875 21.6875 C10.86699219 21.93886719 12.04648437 22.19023437 13.26171875 22.44921875 C14.16535156 22.63097656 15.06898438 22.81273437 16 23 C16 23.99 16 24.98 16 26 C10.39 26 4.78 26 -1 26 C-1 29.3 -1 32.6 -1 36 C11.375 35.505 11.375 35.505 24 35 C18.27842788 40.72157212 14.83785079 43.07482009 6.9765625 43.328125 C5.19254921 43.31761535 3.40856618 43.2912982 1.625 43.25 C0.25408203 43.24226563 0.25408203 43.24226563 -1.14453125 43.234375 C-7.84527726 43.15472274 -7.84527726 43.15472274 -9 42 C-9.4309604 38.62003913 -9.50401073 35.37258244 -9 32 C-6.5 29.375 -6.5 29.375 -4 28 C-4.825 27.21625 -5.65 26.4325 -6.5 25.625 C-9.48209578 22.04140195 -9.61124349 19.01218848 -9.3515625 14.4609375 C-8.59268072 9.14876502 -6.87961739 5.50464663 -2.8125 2.0625 C-1.884375 1.381875 -0.95625 0.70125 0 0 Z " fill="#2EF069" transform="translate(265,247)"/>
<path d="M0 0 C0.66 0.33 1.32 0.66 2 1 C1.67 1.33 1.34 1.66 1 2 C0.84784826 4.28812814 0.77813508 6.58199128 0.75 8.875 C0.72421875 10.13054687 0.6984375 11.38609375 0.671875 12.6796875 C0.7502079 15.87778585 0.7502079 15.87778585 2.09765625 17.83984375 C4.84420805 19.51484557 7.54755621 20.0346404 10.6875 20.6875 C11.86699219 20.93886719 13.04648437 21.19023437 14.26171875 21.44921875 C15.16535156 21.63097656 16.06898438 21.81273437 17 22 C17 22.99 17 23.98 17 25 C11.39 25 5.78 25 0 25 C0 28.3 0 31.6 0 35 C12.375 34.505 12.375 34.505 25 34 C20.84843078 39.18946152 19.13610665 40.60446646 13 42 C9.69317913 42.35955437 6.44796129 42.37699847 3.125 42.3125 C2.27164063 42.31572266 1.41828125 42.31894531 0.5390625 42.32226562 C-5.7323112 42.2676888 -5.7323112 42.2676888 -8 40 C-8.56011931 36.94587574 -8.55866926 34.05369702 -8 31 C-5.5 28.4375 -5.5 28.4375 -3 27 C-3.825 26.236875 -4.65 25.47375 -5.5 24.6875 C-8.66385981 20.90345176 -8.59562954 17.40483712 -8.35546875 12.62109375 C-7.67894643 7.6326709 -6.04792194 4.92607056 -2.3125 1.625 C-1.1678125 0.820625 -1.1678125 0.820625 0 0 Z " fill="#2EF169" transform="translate(636,248)"/>
<path d="M0 0 C0.66 0.33 1.32 0.66 2 1 C1.67 13.21 1.34 25.42 1 38 C10.24 38 19.48 38 29 38 C22 45 22 45 19.31030273 45.24291992 C18.19598877 45.23881104 17.0816748 45.23470215 15.93359375 45.23046875 C14.72638672 45.22853516 13.51917969 45.22660156 12.27539062 45.22460938 C11.00888672 45.21236328 9.74238281 45.20011719 8.4375 45.1875 C7.16712891 45.18685547 5.89675781 45.18621094 4.58789062 45.18554688 C-4.85989947 45.14010053 -4.85989947 45.14010053 -6 44 C-6.31689254 38.67657604 -6.35691527 33.35070748 -6.4050293 28.01879883 C-6.42657138 26.22335532 -6.46062957 24.42801575 -6.50756836 22.63305664 C-6.57471187 20.04265509 -6.60205351 17.45443134 -6.62109375 14.86328125 C-6.64892441 14.0661824 -6.67675507 13.26908356 -6.70542908 12.4478302 C-6.68903343 7.97378263 -6.17521352 5.67814742 -2.96118164 2.44604492 C-1.9839917 1.6388501 -1.00680176 0.83165527 0 0 Z " fill="#2FF569" transform="translate(139,245)"/>
<path d="M0 0 C0.66 0.33 1.32 0.66 2 1 C1.01 2.485 1.01 2.485 0 4 C-0.30757644 6.33687115 -0.30757644 6.33687115 -0.265625 8.9296875 C-0.26820313 9.89003906 -0.27078125 10.85039062 -0.2734375 11.83984375 C-0.26570312 12.84144531 -0.25796875 13.84304688 -0.25 14.875 C-0.25773438 15.86886719 -0.26546875 16.86273438 -0.2734375 17.88671875 C-0.27085937 18.84964844 -0.26828125 19.81257813 -0.265625 20.8046875 C-0.26336914 21.68108887 -0.26111328 22.55749023 -0.25878906 23.46044922 C0.13703742 27.3447766 0.99840983 30.01661321 3.81347656 32.78051758 C6.37335086 34.20822773 8.06542524 34.42272638 10.984375 34.51171875 C12.38623047 34.56489258 12.38623047 34.56489258 13.81640625 34.61914062 C15.26853516 34.65297852 15.26853516 34.65297852 16.75 34.6875 C17.73355469 34.72166016 18.71710938 34.75582031 19.73046875 34.79101562 C22.15353199 34.87335273 24.57623998 34.94254838 27 35 C19.7324953 42.2675047 19.7324953 42.2675047 13.71875 42.32226562 C12.9040625 42.31904297 12.089375 42.31582031 11.25 42.3125 C10.45078125 42.32861328 9.6515625 42.34472656 8.828125 42.36132812 C3.83254695 42.36543633 0.22649426 41.93506546 -4 39 C-9.00529161 33.74486022 -8.57108401 28.28475776 -8.4375 21.4375 C-8.44458984 20.40947266 -8.45167969 19.38144531 -8.45898438 18.32226562 C-8.39781441 11.06186154 -7.39550438 7.50692319 -2.3125 2.1875 C-1.549375 1.465625 -0.78625 0.74375 0 0 Z " fill="#2FF469" transform="translate(180,248)"/>
<path d="M0 0 C1.03576172 0.01482422 2.07152344 0.02964844 3.13867188 0.04492188 C10.69849449 0.23649633 10.69849449 0.23649633 14.1875 2.5625 C5.9375 2.5625 -2.3125 2.5625 -10.8125 2.5625 C-11.1425 14.7725 -11.4725 26.9825 -11.8125 39.5625 C-8.1825 39.5625 -4.5525 39.5625 -0.8125 39.5625 C-5.5625 45.4375 -5.5625 45.4375 -7.8125 46.5625 C-9.47595582 46.68332534 -11.14470591 46.7378794 -12.8125 46.75 C-13.699375 46.76417969 -14.58625 46.77835937 -15.5 46.79296875 C-17.8125 46.5625 -17.8125 46.5625 -19.8125 44.5625 C-20.08606957 41.84812385 -20.2373328 39.24031269 -20.2890625 36.51953125 C-20.31327774 35.31679817 -20.31327774 35.31679817 -20.33798218 34.08976746 C-20.36566799 32.38927865 -20.3871106 30.68867861 -20.40283203 28.98803711 C-20.43715972 26.40064821 -20.52486594 23.81844612 -20.61328125 21.23242188 C-20.84242692 9.54727172 -20.84242692 9.54727172 -18.40258789 4.84545898 C-13.20000316 -0.44713819 -7.02716382 -0.34311453 0 0 Z " fill="#2CE868" transform="translate(606.8125,243.4375)"/>
<path d="M0 0 C0.33 2.64 0.66 5.28 1 8 C3.97 8.33 6.94 8.66 10 9 C10.33 17.91 10.66 26.82 11 36 C14.63 36.33 18.26 36.66 22 37 C19.78071806 39.90802461 18.07030857 41.95312762 15 44 C12.3359375 44.23046875 12.3359375 44.23046875 9.375 44.1875 C8.39273437 44.18105469 7.41046875 44.17460937 6.3984375 44.16796875 C4 44 4 44 3 43 C2.91232888 40.92737924 2.89304127 38.85179706 2.90234375 36.77734375 C2.90556641 35.51728516 2.90878906 34.25722656 2.91210938 32.95898438 C2.92046597 31.61848891 2.92893093 30.27799412 2.9375 28.9375 C2.9425134 27.59310058 2.94707658 26.2486994 2.95117188 24.90429688 C2.96300512 21.60282059 2.97949029 18.30143197 3 15 C2.36191406 15.01160156 1.72382813 15.02320313 1.06640625 15.03515625 C-0.17302734 15.04869141 -0.17302734 15.04869141 -1.4375 15.0625 C-2.67306641 15.07990234 -2.67306641 15.07990234 -3.93359375 15.09765625 C-6 15 -6 15 -7 14 C-7.50195744 10.92471646 -7.57266491 8.06636031 -7 5 C-5.37624637 2.87550797 -2.86299689 0 0 0 Z " fill="#30F66A" transform="translate(301,246)"/>
<path d="M0 0 C0.94875 0.06316406 1.8975 0.12632812 2.875 0.19140625 C3.57625 0.27261719 4.2775 0.35382813 5 0.4375 C5 0.7675 5 1.0975 5 1.4375 C1.7 1.7675 -1.6 2.0975 -5 2.4375 C-5.33 14.6475 -5.66 26.8575 -6 39.4375 C-2.37 39.4375 1.26 39.4375 5 39.4375 C2.78071806 42.34552461 1.07030857 44.39062762 -2 46.4375 C-4.41015625 46.703125 -4.41015625 46.703125 -7.0625 46.6875 C-7.94035156 46.69265625 -8.81820312 46.6978125 -9.72265625 46.703125 C-12 46.4375 -12 46.4375 -14 44.4375 C-14.27356957 41.72312385 -14.4248328 39.11531269 -14.4765625 36.39453125 C-14.50077774 35.19179817 -14.50077774 35.19179817 -14.52548218 33.96476746 C-14.55316799 32.26427865 -14.5746106 30.56367861 -14.59033203 28.86303711 C-14.62465972 26.27564821 -14.71236594 23.69344612 -14.80078125 21.10742188 C-15.02810619 9.17075767 -15.02810619 9.17075767 -12.38574219 4.71606445 C-8.65364782 1.20755792 -5.21112741 -0.45597365 0 0 Z " fill="#2DEA68" transform="translate(225,243.5625)"/>
<path d="M0 0 C1.75183594 0.00386719 1.75183594 0.00386719 3.5390625 0.0078125 C4.70179688 0.00523437 5.86453125 0.00265625 7.0625 0 C10.1640625 0.1328125 10.1640625 0.1328125 13.1640625 1.1328125 C15.47227913 4.59513744 15.43407239 6.05079566 15.4140625 10.1328125 C15.41921875 11.1846875 15.424375 12.2365625 15.4296875 13.3203125 C15.1640625 16.1328125 15.1640625 16.1328125 13.1640625 19.1328125 C10.53709186 19.35418643 8.15512286 19.41443275 5.5390625 19.3203125 C4.83265625 19.30677734 4.12625 19.29324219 3.3984375 19.27929688 C1.65332122 19.2439229 -0.09140358 19.19011471 -1.8359375 19.1328125 C-1.8359375 22.7628125 -1.8359375 26.3928125 -1.8359375 30.1328125 C-2.4959375 29.8028125 -3.1559375 29.4728125 -3.8359375 29.1328125 C-3.86059631 25.16350261 -3.87877773 21.19422216 -3.89086914 17.22485352 C-3.89590807 15.87360864 -3.90273927 14.52236924 -3.91137695 13.17114258 C-3.92346169 11.23260816 -3.92863578 9.2940345 -3.93359375 7.35546875 C-3.93883057 6.18765869 -3.94406738 5.01984863 -3.94946289 3.81665039 C-3.79292751 0.11601926 -3.71743907 0.17409494 0 0 Z " fill="#004251" transform="translate(603.8359375,248.8671875)"/>
<path d="M0 0 C3.05071175 -0.287803 5.96060262 -0.4472872 9 0 C11.10361696 2.4223468 12 3.78245634 12 7 C12.66 7 13.32 7 14 7 C16.20949832 11.41029783 16.2370648 15.48940324 16.125 20.3125 C16.11597656 21.05306641 16.10695313 21.79363281 16.09765625 22.55664062 C16.07424213 24.37123467 16.03837615 26.18566071 16 28 C15.67 28 15.34 28 15 28 C15 25.03 15 22.06 15 19 C8.4 19 1.8 19 -5 19 C-5 21.97 -5 24.94 -5 28 C-5.33 28 -5.66 28 -6 28 C-6.02690104 25.20826945 -6.04679053 22.41679652 -6.0625 19.625 C-6.07087891 18.8309375 -6.07925781 18.036875 -6.08789062 17.21875 C-6.11328125 11.2265625 -6.11328125 11.2265625 -5 9 C-4.34 9 -3.68 9 -3 9 C-2.87625 8.2575 -2.7525 7.515 -2.625 6.75 C-2.0421624 4.18551458 -1.21335551 2.30833488 0 0 Z " fill="#065754" transform="translate(440,251)"/>
<path d="M0 0 C0.33 11.88 0.66 23.76 1 36 C4.63 36.33 8.26 36.66 12 37 C5 44 5 44 2.43359375 44.23046875 C1.44488281 44.21628906 0.45617187 44.20210938 -0.5625 44.1875 C-1.55378906 44.18105469 -2.54507812 44.17460937 -3.56640625 44.16796875 C-6 44 -6 44 -7 43 C-7.31655175 37.65823544 -7.35685996 32.31406932 -7.4050293 26.96386719 C-7.42659308 25.16158874 -7.46067719 23.35941457 -7.50756836 21.55761719 C-7.57458853 18.95981056 -7.60203153 16.36417434 -7.62109375 13.765625 C-7.64892441 12.96336487 -7.67675507 12.16110474 -7.70542908 11.33453369 C-7.68531182 5.84438566 -7.68531182 5.84438566 -5.65725708 3.34558105 C-1.73510184 0 -1.73510184 0 0 0 Z " fill="#30F76A" transform="translate(473,246)"/>
<path d="M0 0 C13 0 13 0 18 3 C18.5234375 5.84765625 18.5234375 5.84765625 18.375 9.0625 C18.34148437 10.12597656 18.30796875 11.18945312 18.2734375 12.28515625 C18 15 18 15 17 17 C17.99 17.33 18.98 17.66 20 18 C13.73 17.67 7.46 17.34 1 17 C1 21.29 1 25.58 1 30 C0.67 30 0.34 30 0 30 C0 20.1 0 10.2 0 0 Z " fill="#085F55" transform="translate(350,249)"/>
<path d="M0 0 C1.32 0 2.64 0 4 0 C4 22.77 4 45.54 4 69 C2.68 69 1.36 69 0 69 C0 46.23 0 23.46 0 0 Z " fill="#31FC6A" transform="translate(404,292)"/>
<path d="M0 0 C3 1 3 1 4 3 C4.89289636 10.24741769 5.84935411 19.19281011 2.6015625 25.87890625 C-1.2350019 29.62934369 -4.71689975 30.34865097 -10 30.4375 C-11.66933923 30.32636193 -13.33807279 30.19246583 -15 30 C-15.66 27.69 -16.32 25.38 -17 23 C-17.33 23 -17.66 23 -18 23 C-18 18.38 -18 13.76 -18 9 C-15.03 9 -12.06 9 -9 9 C-8.67 13.29 -8.34 17.58 -8 22 C-4.7 22 -1.4 22 2 22 C2.05401695 19.08308475 2.09368066 16.16717276 2.125 13.25 C2.14175781 12.425 2.15851563 11.6 2.17578125 10.75 C2.18222656 9.95078125 2.18867188 9.1515625 2.1953125 8.328125 C2.20578613 7.5949707 2.21625977 6.86181641 2.22705078 6.10644531 C1.96777544 3.70103924 1.19225925 2.08748506 0 0 Z " fill="#2CE768" transform="translate(503,260)"/>
<path d="M0 0 C0 3.3 0 6.6 0 10 C2.31 10 4.62 10 7 10 C7 15.94 7 21.88 7 28 C5.02 28.33 3.04 28.66 1 29 C0.67 31.64 0.34 34.28 0 37 C-0.33 37 -0.66 37 -1 37 C-1 30.07 -1 23.14 -1 16 C-3.31 16 -5.62 16 -8 16 C-9.07014059 7.40490252 -9.07014059 7.40490252 -6.4765625 4 C-1.76502404 0 -1.76502404 0 0 0 Z " fill="#2DEC68" transform="translate(557,245)"/>
<path d="M0 0 C6.93359375 -0.09765625 6.93359375 -0.09765625 9 0 C10 1 10 1 10.09765625 3.50390625 C10.06510417 6.3359375 10.03255208 9.16796875 10 12 C13.63 12 17.26 12 21 12 C18.78071806 14.90802461 17.07030857 16.95312762 14 19 C11.58984375 19.265625 11.58984375 19.265625 8.9375 19.25 C8.05964844 19.25515625 7.18179687 19.2603125 6.27734375 19.265625 C4 19 4 19 2 17 C1.375 14.375 1.375 14.375 1 12 C0.01 12.66 -0.98 13.32 -2 14 C-4.73990408 13.96856707 -7.28417854 13.44521663 -10 13 C-10 12.67 -10 12.34 -10 12 C-5.545 11.505 -5.545 11.505 -1 11 C-0.67 7.37 -0.34 3.74 0 0 Z " fill="#2DEB68" transform="translate(356,271)"/>
<path d="M0 0 C2.97 0 5.94 0 9 0 C9 4.62 9 9.24 9 14 C12.63 14 16.26 14 20 14 C17.78071806 16.90802461 16.07030857 18.95312762 13 21 C10.58984375 21.265625 10.58984375 21.265625 7.9375 21.25 C7.05964844 21.25515625 6.18179688 21.2603125 5.27734375 21.265625 C3 21 3 21 1 19 C0.68115234 17.02880859 0.68115234 17.02880859 0.5859375 14.6484375 C0.54726562 13.79765625 0.50859375 12.946875 0.46875 12.0703125 C0.4378125 11.18085938 0.406875 10.29140625 0.375 9.375 C0.33632812 8.4778125 0.29765625 7.580625 0.2578125 6.65625 C0.16341224 4.43784395 0.08061195 2.21894987 0 0 Z " fill="#2DEC68" transform="translate(231,269)"/>
<path d="M0 0 C0.74886475 0.00523682 1.49772949 0.01047363 2.26928711 0.01586914 C3.07817383 0.0190918 3.88706055 0.02231445 4.72045898 0.02563477 C5.5705957 0.03401367 6.42073242 0.04239258 7.29663086 0.05102539 C8.15063477 0.05553711 9.00463867 0.06004883 9.88452148 0.06469727 C12.00108749 0.07652166 14.11761771 0.0944577 16.23413086 0.11352539 C15.90413086 0.77352539 15.57413086 1.43352539 15.23413086 2.11352539 C9.95413086 2.11352539 4.67413086 2.11352539 -0.76586914 2.11352539 C-0.76586914 6.07352539 -0.76586914 10.03352539 -0.76586914 14.11352539 C3.19413086 14.11352539 7.15413086 14.11352539 11.23413086 14.11352539 C11.23413086 14.44352539 11.23413086 14.77352539 11.23413086 15.11352539 C7.27413086 15.11352539 3.31413086 15.11352539 -0.76586914 15.11352539 C-0.76586914 19.73352539 -0.76586914 24.35352539 -0.76586914 29.11352539 C4.84413086 29.11352539 10.45413086 29.11352539 16.23413086 29.11352539 C16.23413086 29.44352539 16.23413086 29.77352539 16.23413086 30.11352539 C13.25490492 30.14036526 10.27591791 30.16028576 7.29663086 30.17602539 C6.02142578 30.18859375 6.02142578 30.18859375 4.72045898 30.20141602 C3.91157227 30.20463867 3.10268555 30.20786133 2.26928711 30.21118164 C1.52042236 30.21641846 0.77155762 30.22165527 0 30.22705078 C-1.76586914 30.11352539 -1.76586914 30.11352539 -2.76586914 29.11352539 C-2.86580446 27.05297229 -2.8966782 24.98899949 -2.89868164 22.92602539 C-2.8999707 21.67047852 -2.90125977 20.41493164 -2.90258789 19.12133789 C-2.90049316 18.46423828 -2.89839844 17.80713867 -2.89624023 17.13012695 C-2.89089148 15.12191204 -2.89618605 13.1139208 -2.90258789 11.10571289 C-2.90129883 9.85016602 -2.90000977 8.59461914 -2.89868164 7.30102539 C-2.89698975 5.55885742 -2.89698975 5.55885742 -2.89526367 3.78149414 C-2.72034589 0.17488744 -2.72034589 0.17488744 0 0 Z " fill="#0F7959" transform="translate(396.765869140625,248.886474609375)"/>
<path d="M0 0 C0.66 0.66 1.32 1.32 2 2 C2.66 1.34 3.32 0.68 4 0 C5.32 0.66 6.64 1.32 8 2 C7.5155542 2.48500977 7.0311084 2.97001953 6.53198242 3.46972656 C4.3750757 7.03214589 4.5210801 10.43613326 4.48828125 14.484375 C4.47033005 15.29996887 4.45237885 16.11556274 4.43388367 16.95587158 C4.3798198 19.55386223 4.34589818 22.15166958 4.3125 24.75 C4.27932339 26.5143484 4.24483341 28.27867263 4.20898438 30.04296875 C4.1240958 34.36184683 4.05726623 38.68067092 4 43 C3.67 43 3.34 43 3 43 C2.67 31.78 2.34 20.56 2 9 C0.35 10.65 -1.3 12.3 -3 14 C-6 16 -6 16 -9 16 C-9 14.02 -9 12.04 -9 10 C-6.03 10 -3.06 10 0 10 C0 6.7 0 3.4 0 0 Z " fill="#0D7258" transform="translate(333,245)"/>
<path d="M0 0 C1.4540625 0.0309375 1.4540625 0.0309375 2.9375 0.0625 C2.298125 0.64 1.65875 1.2175 1 1.8125 C-2.05275442 6.62290091 -1.88405118 11.46812954 -2.0625 17.0625 C-1.27875 17.02125 -0.495 16.98 0.3125 16.9375 C2.9375 17.0625 2.9375 17.0625 4.9375 19.0625 C5.23828125 21.15625 5.23828125 21.15625 5.25 23.5625 C5.27513672 24.75359375 5.27513672 24.75359375 5.30078125 25.96875 C5.18089844 26.6596875 5.06101562 27.350625 4.9375 28.0625 C1.52511477 30.33742349 0.57705735 30.25805565 -3.38671875 30.0390625 C-4.41474609 29.9875 -5.44277344 29.9359375 -6.50195312 29.8828125 C-7.57380859 29.81835938 -8.64566406 29.75390625 -9.75 29.6875 C-10.83345703 29.63078125 -11.91691406 29.5740625 -13.03320312 29.515625 C-15.71030007 29.37410446 -18.38646576 29.22268849 -21.0625 29.0625 C-21.0625 28.7325 -21.0625 28.4025 -21.0625 28.0625 C-13.1425 27.7325 -5.2225 27.4025 2.9375 27.0625 C2.9375 24.7525 2.9375 22.4425 2.9375 20.0625 C0.6275 19.7325 -1.6825 19.4025 -4.0625 19.0625 C-4.08933987 16.08327407 -4.10926037 13.10428705 -4.125 10.125 C-4.13337891 9.27486328 -4.14175781 8.42472656 -4.15039062 7.54882812 C-4.15522461 6.33549805 -4.15522461 6.33549805 -4.16015625 5.09765625 C-4.16801147 3.97435913 -4.16801147 3.97435913 -4.17602539 2.82836914 C-3.97442503 -0.30749202 -3.18111996 0.06492082 0 0 Z " fill="#15905B" transform="translate(579.0625,254.9375)"/>
<path d="M0 0 C1.16273438 -0.01417969 2.32546875 -0.02835938 3.5234375 -0.04296875 C6.625 0.1875 6.625 0.1875 9.625 2.1875 C4.675 2.1875 -0.275 2.1875 -5.375 2.1875 C-5.375 7.4675 -5.375 12.7475 -5.375 18.1875 C-0.425 18.1875 4.525 18.1875 9.625 18.1875 C9.625 18.5175 9.625 18.8475 9.625 19.1875 C4.675 19.1875 -0.275 19.1875 -5.375 19.1875 C-5.375 22.8175 -5.375 26.4475 -5.375 30.1875 C-6.035 29.8575 -6.695 29.5275 -7.375 29.1875 C-7.39965881 25.21819011 -7.41784023 21.24890966 -7.42993164 17.27954102 C-7.43497057 15.92829614 -7.44180177 14.57705674 -7.45043945 13.22583008 C-7.46252419 11.28729566 -7.46769828 9.348722 -7.47265625 7.41015625 C-7.47789307 6.24234619 -7.48312988 5.07453613 -7.48852539 3.87133789 C-7.27507461 -1.17482216 -4.42071881 0.0243969 0 0 Z " fill="#117F5A" transform="translate(607.375,248.8125)"/>
<path d="M0 0 C1.23556641 0.01740234 1.23556641 0.01740234 2.49609375 0.03515625 C3.32238281 0.04417969 4.14867188 0.05320313 5 0.0625 C5.63808594 0.07410156 6.27617187 0.08570313 6.93359375 0.09765625 C4.60026042 2.43098958 2.26692708 4.76432292 -0.06640625 7.09765625 C-0.40327412 9.19460536 -0.40327412 9.19460536 -0.41015625 11.59765625 C-0.45462891 12.92796875 -0.45462891 12.92796875 -0.5 14.28515625 C-0.52191406 15.21328125 -0.54382813 16.14140625 -0.56640625 17.09765625 C-0.60969869 18.93121823 -0.661377 20.76460725 -0.72265625 22.59765625 C-0.74134766 23.41234375 -0.76003906 24.22703125 -0.77929688 25.06640625 C-1.06640625 27.09765625 -1.06640625 27.09765625 -3.06640625 29.09765625 C-3.09106506 25.12834636 -3.10924648 21.15906591 -3.12133789 17.18969727 C-3.12637682 15.83845239 -3.13320802 14.48721299 -3.1418457 13.13598633 C-3.15393044 11.19745191 -3.15910453 9.25887825 -3.1640625 7.3203125 C-3.16929932 6.15250244 -3.17453613 4.98469238 -3.17993164 3.78149414 C-3.02602492 0.14300685 -3.02602492 0.14300685 0 0 Z " fill="#0E7358" transform="translate(122.06640625,254.90234375)"/>
<path d="M0 0 C5.28 0 10.56 0 16 0 C16 0.66 16 1.32 16 2 C13.36 2 10.72 2 8 2 C8 10.91 8 19.82 8 29 C10.64 29 13.28 29 16 29 C16 29.33 16 29.66 16 30 C10.39 30 4.78 30 -1 30 C-1 29.67 -1 29.34 -1 29 C1.64 29 4.28 29 7 29 C7 20.09 7 11.18 7 2 C4.36 2 1.72 2 -1 2 C-0.67 1.34 -0.34 0.68 0 0 Z " fill="#148B5B" transform="translate(562,249)"/>
<path d="M0 0 C2.97 0 5.94 0 9 0 C6.78071806 2.90802461 5.07030857 4.95312762 2 7 C1.54106038 9.18915139 1.54106038 9.18915139 1.59375 11.71875 C1.57183594 12.65074219 1.54992187 13.58273437 1.52734375 14.54296875 C1.51832031 15.51878906 1.50929688 16.49460937 1.5 17.5 C1.48217863 19.4272543 1.45155521 21.35444587 1.40625 23.28125 C1.39561523 24.56612305 1.39561523 24.56612305 1.38476562 25.87695312 C1.25779297 26.57755859 1.13082031 27.27816406 1 28 C-2.35327639 30.23551759 -2.90743657 30.17283528 -6.6875 29.625 C-7.49574219 29.51414062 -8.30398438 29.40328125 -9.13671875 29.2890625 C-9.75160156 29.19367188 -10.36648438 29.09828125 -11 29 C-11 28.67 -11 28.34 -11 28 C-7.7 27.67 -4.4 27.34 -1 27 C-0.67 18.09 -0.34 9.18 0 0 Z " fill="#25CC64" transform="translate(537,255)"/>
<path d="M0 0 C1.93166016 0.01740234 1.93166016 0.01740234 3.90234375 0.03515625 C5.19269531 0.04417969 6.48304688 0.05320313 7.8125 0.0625 C8.81152344 0.07410156 9.81054688 0.08570313 10.83984375 0.09765625 C4.83984375 6.09765625 4.83984375 6.09765625 2.7734375 6.1953125 C1.94972656 6.18371094 1.12601563 6.17210937 0.27734375 6.16015625 C-0.54894531 6.15113281 -1.37523437 6.14210938 -2.2265625 6.1328125 C-2.86464844 6.12121094 -3.50273437 6.10960937 -4.16015625 6.09765625 C-4.20287725 4.4315372 -4.20079457 2.7638274 -4.16015625 1.09765625 C-3.16015625 0.09765625 -3.16015625 0.09765625 0 0 Z " fill="#2EEF69" transform="translate(196.16015625,254.90234375)"/>
<path d="M0 0 C7.26 0 14.52 0 22 0 C22 0.66 22 1.32 22 2 C18.37 2 14.74 2 11 2 C11 10.91 11 19.82 11 29 C10.67 29 10.34 29 10 29 C10 20.09 10 11.18 10 2 C6.7 2 3.4 2 0 2 C0 1.34 0 0.68 0 0 Z " fill="#0F7959" transform="translate(520,249)"/>
<path d="M0 0 C7.26 0 14.52 0 22 0 C21.67 0.66 21.34 1.32 21 2 C17.7 2 14.4 2 11 2 C11 11.24 11 20.48 11 30 C10.67 30 10.34 30 10 30 C10 20.76 10 11.52 10 2 C6.7 2 3.4 2 0 2 C0 1.34 0 0.68 0 0 Z " fill="#11825A" transform="translate(103,249)"/>
<path d="M0 0 C-4.93069452 4.18788859 -8.44672101 6.72694671 -15 7 C-15 4.69 -15 2.38 -15 0 C-13.06325815 -0.19517554 -11.12555991 -0.38087873 -9.1875 -0.5625 C-8.10855469 -0.66691406 -7.02960937 -0.77132813 -5.91796875 -0.87890625 C-3 -1 -3 -1 0 0 Z " fill="#2BE467" transform="translate(622,272)"/>
<path d="M0 0 C7.26 0 14.52 0 22 0 C21.67 0.66 21.34 1.32 21 2 C17.7 2 14.4 2 11 2 C11 10.91 11 19.82 11 29 C10.67 29 10.34 29 10 29 C10 20.09 10 11.18 10 2 C6.7 2 3.4 2 0 2 C0 1.34 0 0.68 0 0 Z " fill="#11825A" transform="translate(307,249)"/>
<path d="M0 0 C0 0.33 0 0.66 0 1 C-0.67546875 1.00257813 -1.3509375 1.00515625 -2.046875 1.0078125 C-7.93378124 1.1580125 -7.93378124 1.1580125 -12.4375 4.625 C-14.03012036 8.06505997 -15.59207023 11.48017556 -17 15 C-17.99 15 -18.98 15 -20 15 C-20 10.38 -20 5.76 -20 1 C-19.67 1 -19.34 1 -19 1 C-18.67 2.65 -18.34 4.3 -18 6 C-17.62230469 5.566875 -17.24460937 5.13375 -16.85546875 4.6875 C-11.60955008 -0.61984629 -7.22698061 -0.70570878 0 0 Z " fill="#20BC62" transform="translate(505,244)"/>
<path d="M0 0 C0 3.96 0 7.92 0 12 C-2.31 12 -4.62 12 -7 12 C-7.375 8.8125 -7.375 8.8125 -7 5 C-5.34004712 2.98612324 -2.74644213 0 0 0 Z " fill="#2FF569" transform="translate(239,246)"/>
<path d="M0 0 C5.28 0 10.56 0 16 0 C12 4 12 4 8.984375 4.390625 C7.38335937 4.32101562 7.38335937 4.32101562 5.75 4.25 C4.67234375 4.21390625 3.5946875 4.1778125 2.484375 4.140625 C1.66453125 4.09421875 0.8446875 4.0478125 0 4 C0 2.68 0 1.36 0 0 Z " fill="#31FA6A" transform="translate(401,255)"/>
<path d="M0 0 C5.28 0 10.56 0 16 0 C12 4 12 4 8.984375 4.390625 C7.38335937 4.32101562 7.38335937 4.32101562 5.75 4.25 C4.67234375 4.21390625 3.5946875 4.1778125 2.484375 4.140625 C1.66453125 4.09421875 0.8446875 4.0478125 0 4 C0 2.68 0 1.36 0 0 Z " fill="#31FA6A" transform="translate(152,255)"/>
<path d="M0 0 C4.95 0 9.9 0 15 0 C14.67 0.66 14.34 1.32 14 2 C13.34 2 12.68 2 12 2 C12 2.99 12 3.98 12 5 C8.37 4.67 4.74 4.34 1 4 C0.67 2.68 0.34 1.36 0 0 Z " fill="#2CE768" transform="translate(648,255)"/>
<path d="M0 0 C4.95 0 9.9 0 15 0 C14.67 0.66 14.34 1.32 14 2 C13.34 2 12.68 2 12 2 C12 2.99 12 3.98 12 5 C8.37 4.67 4.74 4.34 1 4 C0.67 2.68 0.34 1.36 0 0 Z " fill="#2CE768" transform="translate(276,255)"/>
<path d="M0 0 C2.31 0 4.62 0 7 0 C7.04241723 2.33294775 7.04092937 4.66702567 7 7 C6 8 6 8 2.9375 8.0625 C1.968125 8.041875 0.99875 8.02125 0 8 C0 5.36 0 2.72 0 0 Z " fill="#30F66A" transform="translate(607,255)"/>
<path d="M0 0 C1.32 0.33 2.64 0.66 4 1 C4.66 3.64 5.32 6.28 6 9 C3.36 9 0.72 9 -2 9 C-1.125 2.25 -1.125 2.25 0 0 Z " fill="#2DEC68" transform="translate(443,255)"/>
<path d="M0 0 C1.66611905 -0.042721 3.33382885 -0.04063832 5 0 C6 1 6 1 6.0625 4.0625 C6.041875 5.031875 6.02125 6.00125 6 7 C4.02 7 2.04 7 0 7 C0 4.69 0 2.38 0 0 Z " fill="#2DEC68" transform="translate(356,254)"/>
<path d="M0 0 C3.63 0 7.26 0 11 0 C8 4 8 4 5.95703125 4.390625 C3.97135417 4.26041667 1.98567708 4.13020833 0 4 C0 2.68 0 1.36 0 0 Z " fill="#31F96A" transform="translate(152,269)"/>
<path d="M0 0 C3.63 0 7.26 0 11 0 C10.67 0.66 10.34 1.32 10 2 C9.34 2 8.68 2 8 2 C8 2.66 8 3.32 8 4 C5.36 4 2.72 4 0 4 C0 2.68 0 1.36 0 0 Z " fill="#31FA6A" transform="translate(401,269)"/>
<path d="M0 0 C2.97 0 5.94 0 9 0 C3.85714286 5.57142857 3.85714286 5.57142857 0 6 C0 4.02 0 2.04 0 0 Z " fill="#2DEC68" transform="translate(324,255)"/>
<path d="M0 0 C2.97 0 5.94 0 9 0 C3.85714286 5.57142857 3.85714286 5.57142857 0 6 C0 4.02 0 2.04 0 0 Z " fill="#2DED68" transform="translate(120,255)"/>
<path d="M0 0 C1.39195915 4.17587745 -0.17676781 6.13474776 -2 10 C-2.66 10 -3.32 10 -4 10 C-4.25 7.25 -4.25 7.25 -4 4 C-2 1.625 -2 1.625 0 0 Z " fill="#30F56A" transform="translate(490,249)"/>
<path d="M0 0 C0.33 0 0.66 0 1 0 C1 1.65 1 3.3 1 5 C0.67 5 0.34 5 0 5 C0 3.35 0 1.7 0 0 Z M-4 7 C-3.34 7.33 -2.68 7.66 -2 8 C-3.04874998 10.62187494 -3.64931313 11.79371361 -6.125 13.25 C-6.74375 13.4975 -7.3625 13.745 -8 14 C-6.79618552 11.50638429 -5.54571278 9.31856917 -4 7 Z " fill="#034E53" transform="translate(357,278)"/>
<path d="M0 0 C0.99 0 1.98 0 3 0 C3.33 1.65 3.66 3.3 4 5 C3.34 5 2.68 5 2 5 C2.33 6.65 2.66 8.3 3 10 C-0.00617269 6.99382731 0.40414684 4.17618402 0 0 Z " fill="#0B6B57" transform="translate(456,247)"/>
<path d="M0 0 C1.98 0 3.96 0 6 0 C4.71937515 1.7074998 3.38232443 3.37373596 2 5 C1.34 5 0.68 5 0 5 C0 3.35 0 1.7 0 0 Z " fill="#2DEC68" transform="translate(576,255)"/>
</svg>
